
        <svg xmlns="http://www.w3.org/2000/svg" xmlns:xlink="http://www.w3.org/1999/xlink" version="1.1" width="3140.4957249299982" 
        height="3188.90199849203" viewBox="0 0 3140.4957249299982 3188.90199849203">
			
			<g transform="scale(9.445099924601498) translate(10, 10)">
				<defs id="SvgjsDefs2288"></defs><g id="SvgjsG2289" featureKey="rootContainer" transform="matrix(1.679851890870981,0,0,1.679851890870981,0.0005871445827524324,0.0002897674663174521)" fill="#f7f7f7"><path xmlns="http://www.w3.org/2000/svg" d="M17.914 148.907zM22.657 154.94a90.586 90.586 0 0 0 5.861 6.251c6.914 6.805 15.159 12.525 24.004 16.851 3.259 1.526 6.265 3.107 9.787 4.468.88.338 1.779.7 2.724 1.026.953.302 1.941.604 2.974.903 1.027.321 2.122.549 3.267.786 1.146.23 2.336.493 3.614.624a91.24 91.24 0 0 1-18.434-5.99 93.833 93.833 0 0 1-16.873-9.842c-10.548-7.727-19.57-17.648-26.16-28.989-.272-.339-.685-.985-1.18-1.808l-.796-1.348-.803-1.551c-.534-1.076-1.149-2.168-1.62-3.226a71.281 71.281 0 0 0-1.326-2.748c2.048 5.101 4.412 9.563 7.059 13.806a93.473 93.473 0 0 0 3.869 5.697c-.192-.259-.392-.511-.583-.771a95.012 95.012 0 0 0 4.6 5.841l.016.02zM18.039 149.078l-.125-.17.125.17zM1.335 106.042l-.483-3.875c.256 2.365.553 5.008 1.096 7.654l-.327-1.879a23.961 23.961 0 0 1-.286-1.9zM85.812 185.575c6.652.673 13.628.472 20.461-.609 6.837-1.077 13.524-2.987 19.741-5.449-11.45 4.503-23.602 6.506-35.49 6.171-1.591-.025-3.159 0-4.712-.113z"></path><path xmlns="http://www.w3.org/2000/svg" d="M46.426 171.967l-.259-.165c.087.055.172.111.259.165zM46.167 171.802zM43.653 170.135zM56.077 177.284A83.837 83.837 0 0 0 73.2 183.1c-9.688-2.21-18.805-6.109-26.774-11.133 3.06 1.947 6.277 3.749 9.651 5.317zM177.002 107.094c.098-1.58.296-3.238.346-4.027.594-5.071.77-9.401.745-13.745-.11-.783-.425-2.25-.55-3.918-.153-1.672-.378-3.309-.568-4.924-.289-1.601-.538-3.186-.854-4.74 2.275 11.617 2.237 23.279.144 34.282a94.97 94.97 0 0 1 .737-2.928z"></path><path xmlns="http://www.w3.org/2000/svg" d="M.887 83.482c.848-6.9 2.653-13.626 4.37-18.107l-.695 3.28c.429-.961 1.122-3.194 2.067-5.557l.682-1.802.753-1.747c.5-1.131.92-2.203 1.363-3.025-.303.771-.595 1.602-.947 2.436-.345.837-.732 1.687-1.101 2.542l1.514-3.409A111.863 111.863 0 0 0 4.954 69.8c-1.133 4.352-2.029 8.926-2.511 13.032-.14 1.024-.189 2.024-.28 2.978-.067.954-.183 1.864-.192 2.724-.042 1.719-.1 3.224-.071 4.428.105 2.409.25 3.61.459 2.939.411-1.333.403-8.188 1.837-16.767.767-4.276 1.868-8.966 3.362-13.561 1.483-4.599 3.427-9.058 5.44-12.992l-.592 1.292-.545 1.331-1.116 2.691-1.024 2.78-.521 1.402c-.153.476-.308.954-.461 1.434-1.32 3.807-2.307 7.816-3.167 11.857l-.559 3.052c-.205 1.014-.292 2.046-.444 3.067-.318 2.041-.434 4.097-.611 6.129-.199 4.074-.239 8.098.13 11.946-.015-.914-.03-1.726-.017-2.512l.115-2.355c.048-.809.039-1.667.115-2.65.07-.983.134-2.091.19-3.402.391-6.608 1.572-13.15 3.408-19.481 1.75-6.358 3.814-11.957 6.889-17.03l.801-1.526c.542-1.024.993-2.034 1.566-3.064.653-1.13 1.278-1.976 1.784-2.751.521-.767.963-1.441 1.469-2.095l3.682-5.082c.075-.009-.022.185-.2.473a28.962 28.962 0 0 1 1.959-2.49c.755-.875 1.488-1.803 2.109-2.569.146-.007.288-.011.623-.251 8.65-9.197 19.295-16.692 31.291-21.417l2.667-1.039 2.7-.899 1.343-.448 1.36-.38 2.71-.753c1.55-.373 3.12-.751 4.721-1.091l2.437-.426c.819-.141 1.642-.3 2.484-.378 1.674-.201 3.134-.625 3.921-.729 4.369-.249 8.73-.199 13.849.216.397.007 1.015.043 1.732.082.717.041 1.537.061 2.332.134.932.21 1.927.418 2.971.621 6.369.988 12.527 2.754 18.386 5.103l-.007-.028 2.244.894 2.29 1.058c1.571.684 3.11 1.559 4.7 2.383.798.407 1.554.904 2.338 1.354.77.474 1.576.894 2.32 1.412 1.508 1.002 3.037 1.961 4.446 3.032a99.912 99.912 0 0 1 6.6 5.198c.046.042.094.081.14.122l.042.038 1.457 1.322 1.394 1.391 1.395 1.392c.462.467.89.967 1.337 1.449-.216-.35-.208-.491-.2-.63-.689-.66-1.504-1.441-2.309-2.21 1.343 1.222 2.515 2.327 3.477 3.229.371.474.776.94 1.16 1.449l1.186 1.566 1.261 1.629 1.255 1.752c2.226 2.838 4.191 5.874 6.057 8.97.864 1.588 1.817 3.131 2.586 4.774l1.213 2.436 1.092 2.497c.314.533.192.022.231-.068 1.225 2.962 2.21 6.042 3.102 9.146a88.212 88.212 0 0 1 3.408 17.211c.225 1.378.321 2.772.52 4.153l-.123 2.924c-.001 1.103.057 2.206.01 3.311l-.128 3.326c-.016.75-.124 1.569-.187 2.459-.084.888-.128 1.846-.256 2.856l-.412 3.192c-.132 1.119-.387 2.269-.583 3.471a90.635 90.635 0 0 1-4.312 15.482c-.242.826-.427 1.486-.592 1.855-.627 1.501-1.296 2.954-1.942 4.385-.723 1.394-1.386 2.788-2.127 4.108a86.09 86.09 0 0 1-7.949 12.379c-.336.439-.649.885-.987 1.297l-.998 1.206c-.66.779-1.25 1.558-1.876 2.234-1.251 1.352-2.301 2.606-3.286 3.549-1.128 1.178-1.027 1.233-.246.665a35.07 35.07 0 0 0 1.608-1.262l2.122-1.914c.776-.677 1.519-1.441 2.235-2.161.708-.725 1.416-1.386 1.962-1.984 1.101-1.191 1.824-1.926 1.67-1.599-1.777 3.345-5.013 7.471-9.743 12.035-2.413 2.227-5.128 4.647-8.339 6.98-1.566 1.221-3.307 2.338-5.082 3.558-1.834 1.123-3.708 2.353-5.757 3.445-4.484 2.442 3.365-1.475 3.577-1.512a22.87 22.87 0 0 1-2.377 1.64c-1.478.786-2.943 1.597-4.474 2.273-.895.411-1.774.855-2.679 1.239l-2.729 1.122 1.444-.568c2.952-1.173 5.711-2.555 8.202-3.922-.936.566-1.96 1.221-3.082 1.812-1.203.622-2.448 1.302-3.697 1.909l-3.625 1.686c12.968-4.711 24.885-12.507 34.319-22.67 4.723-5.066 8.935-10.631 12.369-16.651a93.904 93.904 0 0 0 8.288-18.999c-3.154 9.93-8.071 19.052-13.981 26.765 10.744-14.507 17.15-32.293 17.999-50.636-.001 1.011-.101 2.018-.168 3.025-.083 1.007-.123 2.018-.241 3.022-.257 2.005-.441 4.021-.827 6.009-.624 4-1.636 7.931-2.782 11.815 2.262-7.021 3.613-14.424 4.145-21.869.554-7.451.092-14.947-1.057-22.211 1.974 9.622 2.301 20.524.619 31.298 1.182-6.949 1.482-14.112 1.028-21.214-.102-2.713-.422-5.407-.685-7.901-.377-2.476-.662-4.762-1.027-6.611 1.445 6.826 2.015 12.648 2.293 18.136-.267-11.977-2.748-24.112-7.62-35.511 2.659 6.191 4.842 12.851 6.175 19.698 1.34 6.84 1.897 13.838 1.58 20.57-.015-.788.018-1.575-.028-2.366l-.107-2.391c.287 10.85-1.384 21.604-4.696 31.717-1.662 5.056-3.715 9.969-6.2 14.644a95.521 95.521 0 0 1-8.56 13.316c3.673-4.29 7.551-10.354 10.646-17.015 3.081-6.675 5.368-13.894 6.941-20.199-2.314 11.322-6.907 22.494-13.571 32.471-6.646 9.985-15.351 18.764-25.423 25.502-10.06 6.759-21.474 11.437-33.187 13.748a94.608 94.608 0 0 1-17.657 1.809 94.462 94.462 0 0 1-17.361-1.515l3.005.571c1.002.19 2.018.295 3.026.445 2.016.324 4.055.446 6.087.633 4.073.229 8.168.306 12.25-.005 4.089-.217 8.152-.827 12.196-1.572 2.006-.456 4.036-.829 6.017-1.414.994-.278 2-.521 2.987-.83l2.955-.958c-1.492.462-3.062 1.074-4.739 1.523l-2.101.618a91.772 91.772 0 0 0 12.91-4.496 89.46 89.46 0 0 0 5.651-2.705 96.653 96.653 0 0 1-10.714 4.872 98.407 98.407 0 0 1-21.66 5.382c-1.11.176-2.122.231-3.029.326l-2.428.24c-1.429.113-2.484.164-3.222.245-1.477.147-1.687.284-1.099.397.587.113 1.971.203 3.673.251 1.697-.01 3.71-.101 5.541-.268 18.397-1.887 35.288-9.107 48.824-19.916 13.545-10.811 23.919-25.172 29.701-41.467.363-.946.642-1.922.944-2.89.293-.971.617-1.932.882-2.912.491-1.97 1.072-3.917 1.448-5.917l.619-2.985.487-3.012.241-1.507.172-1.517.342-3.034c.698-8.114.422-16.315-.812-24.363-.66-4.554-1.82-9.961-3.315-14.777l-1.15-3.484c-.4-1.107-.825-2.151-1.203-3.133l-.557-1.415-.571-1.271-.981-2.124c-3.134-6.359-7.072-12.424-11.682-18.065-4.605-5.643-9.896-10.868-15.861-15.418l-2.244-1.703-2.327-1.608-1.166-.806-1.203-.756-2.417-1.508c-3.295-1.904-6.67-3.739-10.228-5.261-3.521-1.598-7.206-2.895-10.957-4.055-1.895-.52-3.781-1.1-5.724-1.499-.968-.209-1.928-.463-2.907-.638l-2.944-.521C100.363.01 93.04-.285 85.724.265 78.412.83 71.069 2.218 64.028 4.614l-2.635.913c-.881.297-1.73.682-2.597 1.019-.858.359-1.735.673-2.577 1.069l-2.532 1.173c-.852.376-1.675.808-2.496 1.245l-2.469 1.297-2.402 1.412c-.8.472-1.606.933-2.372 1.458l-2.324 1.528c-.782.497-1.506 1.078-2.261 1.612-.741.554-1.51 1.07-2.226 1.654l-2.157 1.737c-.729.565-1.417 1.178-2.103 1.792l-2.063 1.83-1.971 1.919c-.656.639-1.319 1.271-1.93 1.951-5.031 5.298-9.451 11.078-13.066 17.194A99.518 99.518 0 0 0 5.18 64.379C.805 77.299-.45 90.402.134 102.237c-.126-4.872-.147-11.859.753-18.755zm141.132 90.446a96.807 96.807 0 0 0 8.765-6.389c-2.84 2.339-5.758 4.499-8.765 6.389zm40.217-54.282c-.299.901-.552 1.791-.882 2.641l-.957 2.523-.466 1.248-.513 1.231a108.54 108.54 0 0 0-.997 2.501 97.307 97.307 0 0 1-6.587 13.35c-2.521 4.275-5.443 8.281-8.565 12.04-1.542 1.899-3.222 3.66-4.874 5.421l-2.581 2.523c-.847.848-1.774 1.604-2.652 2.404-.736.64-1.478 1.266-2.225 1.882a90.696 90.696 0 0 0 7.896-7.312 89.808 89.808 0 0 1-11.689 10.188c-1.036.722-2.037 1.496-3.113 2.176l-3.247 2.069-3.43 1.949c-1.167.648-2.399 1.224-3.634 1.855a74.206 74.206 0 0 1 2.685-1.508c1.021-.567 2.092-1.237 3.138-1.85 1.054-.601 2.012-1.261 2.808-1.813.796-.552 1.42-1.01 1.745-1.306-.464.315-.936.617-1.406.924a92.477 92.477 0 0 0 1.507-1.015c-.021.023-.065.059-.101.091 10.932-7.466 20.245-17.277 27.223-28.462 7.009-11.175 11.57-23.781 13.46-36.601-.41 5.142-1.352 9.248-2.543 12.851zm-6.654-65.352zm-8.448-12.698a92.37 92.37 0 0 1 7.773 14.352c.25.549.486 1.106.719 1.664 4.963 12.154 7.221 25.192 6.89 38.036.084-4.25-.198-8.498-.669-12.71-.533-4.854-1.518-9.65-2.824-14.341-2.562-9.407-6.723-18.323-12.005-26.451.485.67.996 1.396 1.525 2.166a32.826 32.826 0 0 1 1.59 2.463l-.638-1.109-.689-1.079-1.378-2.156c-.938-1.424-1.955-2.796-2.934-4.192-1.062-1.334-2.069-2.712-3.174-4.011-.836-.953-1.637-1.938-2.485-2.879 2.992 3.155 5.801 6.54 8.299 10.247zM96.886 1.152c1.467.078 2.937.221 4.407.331 1.204.101 2.402.279 3.588.413.356.015.732.039 1.204.092.471.065 1.034.186 1.769.354 5.469.912 10.459 2.283 14.001 3.699 6.798 2.573 13.123 5.774 18.86 9.471 5.739 3.69 10.889 7.887 15.246 12.471 2.008 2.179 1.422 1.704.315.646l1.662 1.764c-.736-.734-1.459-1.478-2.206-2.196l-2.301-2.09c.56.49 1.918 1.663 2.845 2.522-7.389-7.539-16.026-13.799-25.375-18.404-9.356-4.603-19.431-7.446-29.502-8.581 1.618.18 2.412.22 3.168.24-1.085-.127-2.173-.301-3.274-.401-1.479-.097-2.955-.229-4.423-.301l-4.36-.103c1.444-.001 2.907.039 4.376.073z"></path><path xmlns="http://www.w3.org/2000/svg" d="M115.942 184.69l.426-.125c-.446.12-.885.252-1.334.366.304-.076.609-.15.908-.241zM160.424 146.151c4.235-5.587 7.977-12.263 10.366-18.014l-.029.006c-6.061 14.322-15.892 26.66-28.16 35.744a159.12 159.12 0 0 0 6.418-4.703c2.698-2.82 7.213-7.406 11.405-13.033zM35.35 162.846c7.172 6.412 15.821 11.992 25.448 15.751 3.754 1.413 7.585 2.651 11.503 3.523 1.944.502 3.929.812 5.899 1.181.987.175 1.987.272 2.979.412.994.129 1.986.275 2.987.333-4.519-.501-9.005-1.251-13.372-2.44-4.364-1.185-8.642-2.65-12.769-4.449a97.4 97.4 0 0 1-11.894-6.314c-3.786-2.408-7.376-5.097-10.781-7.997zM123.877 174.277l-2.219.871-2.266.756c-1.5.54-3.047.944-4.59 1.373 1.551-.39 3.111-.754 4.624-1.254l2.283-.698 2.23-.815c-.086-.044-.594.055-.062-.233zM97.683 179.965c-1.16.099-2.326.09-3.494.102-1.168.014-2.338.039-3.509-.038l1.576.148c.482.031.916.068 1.295.113 1.381-.118 2.752-.151 4.132-.325zM51.441 169.209c1.341.787 2.765 1.48 4.178 2.244.354.194.996.415 1.801.709-1.721-.739-3.37-1.655-5.046-2.505-.83-.441-1.629-.935-2.443-1.395-.812-.464-1.621-.927-2.389-1.445l.937.626.977.584 1.985 1.182z"></path></g><g id="SvgjsG2290" featureKey="symbolFeature-0" transform="matrix(0.839258586189625,0,0,0.839258586189625,113.80370706905188,65.34141531508827)" fill="#f8b500"><path xmlns="http://www.w3.org/2000/svg" d="M5,20.1l7.4-7.4l26.1,26.1l7.5,7.4l-7.5,7.4L12.4,79.7L5,72.3l26.1-26.1L5,20.1z M95,87.3V75.7H48.8v11.6H95z"></path></g><g id="SvgjsG2291" featureKey="nameFeature-0" transform="matrix(1.9775542642296264,0,0,1.9775542642296264,54.813467158570816,130.68141222407715)" fill="#f7f7f7"><path d="M6.48 32.76 l-0.04 -0.04 c0.28 -0.16 0.56 -0.48 0.68 -0.8 l-0.04 -0.04 c0.04 -0.36 0.52 -0.8 0.8 -1.04 l-0.04 -0.08 l0.04 -0.08 l0.08 0.08 l0.2 -0.28 l-0.08 -0.08 l0.12 -0.12 c0 -0.56 1.28 -1.88 1.76 -2.2 l0 0 c0.16 -0.04 0.32 -0.12 0.48 -0.12 l0.04 0.04 c0.16 0 0.24 -0.2 0.44 -0.2 l0 0.04 c0.08 -0.08 0.24 -0.16 0.44 -0.16 l0 0.08 l0.16 -0.08 l0.2 0.04 l0.12 -0.04 c0.04 0.24 0.2 0.2 0.2 0.44 c0 0.2 -0.12 0.48 -0.16 0.68 l0 0.04 c-0.36 0.8 -0.84 1.92 -0.96 2.76 c-0.08 0.8 -0.16 1.72 -0.44 2.44 c0 0.04 0 0.12 -0.08 0.12 c-0.12 0 -0.12 0.44 -0.12 0.52 c0 0.52 -0.16 0.96 -0.16 1.48 c0 0.24 0.08 1.52 0.52 1.52 l0.28 -0.2 c0.12 0 0.04 0.2 0.2 0.2 c0 0.12 -0.12 0.04 -0.16 0.2 c0.04 0.04 0.12 0.08 0.12 0.16 l-0.08 0.2 l0 0.08 c-0.08 0 -0.16 0.12 -0.16 0.16 l0.04 0.04 c0 0.12 -0.16 0.12 -0.24 0.16 l-0.04 -0.08 l-0.2 0.12 l-0.12 0 c-0.12 0 -0.24 0.08 -0.36 0.08 c-0.16 -0.08 -0.24 -0.16 -0.36 -0.16 l-0.04 0.04 c-0.24 -0.04 -0.64 -0.36 -0.8 -0.48 c-0.48 -0.24 -0.52 -0.68 -0.52 -1.16 c0 -0.24 -0.2 -0.48 -0.2 -0.72 c0 -0.4 0.2 -0.88 0.2 -1.36 l-0.04 -0.04 l0.04 -0.12 c0 -0.6 0.16 -0.96 0.16 -1.48 c0 -0.04 -0.08 -0.16 -0.08 -0.2 c-0.04 0.4 -0.8 0.88 -0.92 1.24 c-0.32 0.44 -0.64 0.84 -0.92 1.24 c-1.12 0.8 -0.88 0.92 -1.68 1.64 c-0.28 0.28 -0.64 0.48 -0.96 0.72 l0 -0.04 c-0.68 0 -1.2 0.36 -1.88 0.36 c-0.04 0 -0.24 -0.12 -0.32 -0.12 l-0.16 0.04 c-0.56 -0.64 -0.84 -1.28 -0.84 -2.08 c0 -1 0.32 -2 0.68 -2.96 c0.32 -0.88 0.76 -1.72 1.28 -2.52 c0.16 -0.28 0.36 -0.56 0.52 -0.8 l0.2 -0.32 s0.16 -0.04 0.16 -0.08 l0.52 -1.08 c0 -0.04 0.32 -0.32 0.32 -0.36 c0 -0.16 2.04 -1.64 2.36 -1.84 c0.4 0 0.8 -0.16 1.12 -0.32 c0 0 0.44 -0.2 0.52 -0.2 c0.04 0 0 0 0 0.04 c0.12 -0.04 0.48 -0.12 0.8 -0.12 c0.08 0 0.16 0 0.2 0.04 l-0.04 -0.08 c0.72 0 1.44 0.68 1.88 1.16 c0.04 0.08 0.08 0.12 0.2 0.12 l-0.04 0.04 l0.08 0.12 l0 0.04 l-0.2 -0.04 l-0.08 0.08 c0 0.2 0.28 0.24 0.28 0.36 l-0.2 -0.12 l-0.24 0.08 c0 0.16 0.24 0.2 0.44 0.24 c-0.88 -0.2 -0.96 -0.12 -1.72 -0.6 c-0.28 -0.16 -0.56 -0.6 -0.88 -0.6 c-0.04 0 -0.76 0.2 -0.84 0.24 c0.12 -0.12 0.28 -0.16 0.44 -0.24 c-0.2 0 -1.2 0.48 -1.2 0.68 l0.2 0 c-0.04 0.2 -0.48 0.72 -0.72 0.76 l0.08 0.08 l-0.08 0.04 l0.12 0.12 c-0.28 0.2 -0.68 0.64 -0.68 0.96 c-0.2 0.16 -0.92 1.44 -0.96 1.68 c-0.36 0.2 -0.76 1.08 -0.88 1.48 l0 -0.04 c-0.64 0.72 -1.68 3.52 -1.76 4.56 c0.08 0.08 -0.04 0.16 0.12 0.16 c0.32 -0.36 1 -1 1.52 -1.12 l0.16 0 l0.08 -0.16 l-0.04 0 c0.04 -0.12 0.32 -0.36 0.36 -0.48 l0 0.04 c0 -0.32 0.24 -0.68 0.6 -0.8 l-0.04 0 c0.04 -0.2 0.52 -0.24 0.52 -0.6 l-0.04 -0.04 l0.2 -0.12 l-0.04 0 c0.04 -0.28 0.28 -0.56 0.56 -0.72 z M6.44 27.759999999999998 c0.16 -0.2 0.52 -0.92 0.88 -0.96 c-0.2 0.36 -0.68 0.64 -0.88 1 l0 -0.04 z M7.4 27.04 l-0.04 -0.04 c0.04 -0.04 0.12 -0.16 0.16 -0.2 l0.08 0.08 c0 0.08 -0.12 0.12 -0.2 0.16 z M7.92 26.64 c-0.08 0.04 -0.16 0.12 -0.28 0.16 l0 0 c0.08 -0.08 0.2 -0.16 0.28 -0.16 z M2.76 30.560000000000002 c0.04 -0.04 0.08 -0.08 0.08 -0.12 c-0.08 0 -0.08 0.08 -0.08 0.12 z M11.4 27.560000000000002 l-0.08 0 c-0.16 0 -0.28 -0.04 -0.32 -0.08 c0.12 0 0.28 0.08 0.4 0.08 z M4.48 35.44 l0.08 0 l0 -0.04 z M7.88 31.2 l0.08 0 l0.04 -0.04 c-0.04 0 -0.08 0 -0.12 0.04 z M4.48 35.44 l-0.04 0.08 l0 0.04 c0.04 -0.04 0.04 -0.08 0.04 -0.12 z M8.48 34.64 l0 0.08 l0.04 -0.04 z M7.96 30.6 l-0.04 0 l0.04 -0.04 c0.04 0 0.04 0 0.04 -0.04 c0 0.04 0 0.04 -0.04 0.08 z M7.88 30.64 c0 -0.04 0 -0.04 0.04 -0.04 c0 0.04 0 0.04 -0.04 0.04 z M11.36 27.6 l0 0 l0 0 l0 0 z M4.12 35.72 l0.12 -0.04 c-0.04 0.04 -0.04 0.04 -0.12 0.04 z M10.84 27.439999999999998 l0 0.04 l0 -0.04 z M20.935 15.280000000000001 c0 0.52 -0.84 1.44 -0.84 1.92 c-0.88 1.52 -1.84 4.92 -2.24 6.68 c-0.12 0.52 -0.52 1.2 -0.56 1.68 c0 0.28 -0.2 1.96 -0.52 1.96 c-0.12 0 -0.12 -0.08 -0.12 -0.08 l-0.12 0.12 c0 0.12 0.12 0.12 0.2 0.2 c-0.12 0.52 -0.68 2.08 -0.68 2.64 c0 0.04 0 0.08 0.04 0.12 c-0.12 0.36 -0.2 0.44 -0.2 0.72 c0 0.08 0 0.2 0.04 0.36 l-0.24 0.24 c0 0.12 0.04 0.24 0.04 0.4 c0 0.6 -0.64 2.68 -0.64 3.48 c0 0.12 0 0.2 0.04 0.24 c-0.24 0.2 -0.28 0.56 -0.28 0.88 l0 0.36 c0 0.8 0.04 2.36 0.36 2.84 c0.08 0.16 0.24 0.12 0.32 0.2 c0.16 0.2 0.48 0.8 0.8 0.8 c0.8 0 2 -1.64 2.4 -1.76 l0.04 0.16 c-0.64 1.44 -1.04 2.4 -3.24 2.4 c-2.4 0 -2.96 -2.28 -2.96 -3.64 c0 -0.32 0.04 -0.64 0.04 -0.96 c0 -0.28 -0.04 -0.56 -0.04 -0.84 c0 -0.24 0.28 -0.64 0.32 -0.88 c0.08 -1 0.28 -1.92 0.48 -2.92 l-0.04 -0.04 c0.52 -1.68 1.08 -3.84 1.08 -4.16 c0 -0.6 1.12 -3.64 1.28 -4.68 c0.2 -0.96 0.32 -2.04 0.68 -2.96 c0.44 -1.08 0.68 -0.56 0.96 -2.24 l-0.08 -0.08 c0.12 -0.76 0.44 -1.52 0.72 -2.2 c0.88 -0.6 0.28 -1.92 2.16 -1.92 c0.6 0 0.8 0.48 0.8 0.96 z M13.655 36.24 l0.08 -0.32 l0.04 0 s-0.04 -0.08 -0.04 -0.12 c0 -1 0.6 -3.88 0.88 -5 l-0.16 0.16 l-0.04 0 c0.04 -0.68 0.52 -1.4 0.72 -2.04 c0.48 -1.8 0.84 -3.56 1.52 -5.32 c0.36 -0.96 0.88 -1.92 1.2 -2.88 c-0.2 0.08 -1.8 3.72 -1.84 4.16 c-0.04 0 -0.04 -0.12 -0.04 -0.16 c0 -0.88 2.12 -5.32 2.44 -7.68 l-0.08 -0.08 c-0.12 0.24 -0.64 1.12 -0.64 1.28 l0.04 0 c-1 2.64 -1.56 5.36 -2.48 8 c-0.12 0.32 -0.2 0.56 -0.24 0.88 c-0.12 0.64 -1.44 5.48 -1.44 5.84 l0 0.04 c-0.44 1.24 -0.68 2.52 -0.68 3.84 c0 0.52 0 1 0.08 1.52 c0 0.04 -0.04 0.12 -0.04 0.12 c0 0.16 0.04 0.28 0.04 0.4 l0.08 -0.2 c0 -0.04 -0.04 -0.08 -0.04 -0.16 c0 -0.36 0.12 -0.76 0.16 -1.12 c0 0.52 0 1.08 0.16 1.56 c0.08 -0.12 0.24 -0.44 0.24 -0.56 c0 -0.2 -0.12 -0.36 -0.12 -0.56 c0 -0.32 0.28 -0.32 0.28 -0.52 c0 -0.16 -0.2 0.04 -0.2 -0.24 c0.2 -0.16 0.2 -0.44 0.32 -0.68 l-0.08 -0.24 z M14.695 37.24 c0 -0.08 0 -0.12 -0.12 -0.16 l-0.24 0.32 c-0.04 0 -0.12 -0.04 -0.12 -0.08 c-0.2 0 -0.2 0.36 -0.2 0.56 c0 0.12 0 0.24 0 0.2 c0 0.2 0.12 1 0.44 1 c0.12 0 0.12 -0.12 0.12 -0.16 c-0.08 -0.08 -0.08 -0.2 -0.08 -0.28 l0 -0.32 l-0.12 0.04 c-0.08 -0.04 -0.12 -0.12 -0.12 -0.2 s0.36 -0.84 0.44 -0.92 z M14.575 36.88 l0.16 -0.6 l-0.04 -0.12 c0.04 -0.04 0.04 -0.08 0.04 -0.16 l-0.16 0 c0 -0.16 0.16 -0.2 0.16 -0.28 s-0.24 -0.16 -0.24 -0.52 c-0.16 0 -0.24 0.76 -0.28 0.88 l0 0.36 c0 0.28 0 0.6 0.08 0.6 l0.08 -0.04 c0 -0.12 -0.04 -0.24 -0.08 -0.32 l0.08 -0.08 c0.12 0 0.08 0.16 0.2 0.28 z M14.735 33.44 l0.16 -0.04 l0 0.12 c0 0.16 -0.24 0.28 -0.28 0.44 l0.04 0.16 c-0.08 0.04 -0.08 0.12 -0.08 0.2 l0.08 0.12 c0.44 -0.4 0.6 -1.04 0.6 -1.4 c0 -0.12 -0.2 -0.16 -0.36 -0.16 c0 0.16 -0.08 0.36 -0.16 0.56 z M15.334999999999999 27.16 l0.12 0.04 c-0.12 0.32 -0.56 2.04 -0.76 2.2 c0.16 -0.8 0.32 -1.48 0.64 -2.24 z M18.174999999999997 18.6 c-0.28 0.08 -0.52 1.16 -0.64 1.44 c0.2 -0.28 0.64 -1.16 0.64 -1.44 z M15.655 29.92 l0.2 0.08 c0.12 -0.04 0.12 -0.08 0.12 -0.2 s0 -0.28 -0.08 -0.32 c-0.12 0.04 -0.12 0.32 -0.24 0.44 z M16.174999999999997 26 c-0.08 0.24 -0.08 0.52 -0.2 0.72 l0.04 0.08 c0.12 -0.16 0.2 -0.32 0.32 -0.48 c-0.16 -0.12 -0.16 -0.16 -0.16 -0.32 z M13.855 33.2 c0 -0.32 0 -1 0.36 -1.24 c-0.2 0.36 -0.32 0.88 -0.36 1.24 z M15.295 29.04 l0.12 0.04 c0.08 -0.12 0.16 -0.32 0.24 -0.4 c-0.08 -0.12 -0.04 -0.24 -0.12 -0.32 c-0.08 0.2 -0.12 0.48 -0.24 0.68 z M15.454999999999998 31.28 l-0.04 0 l0.04 -0.16 l0 -0.04 c-0.2 0.08 -0.32 0.32 -0.36 0.48 l0.04 0.08 c0.12 -0.08 0.2 -0.2 0.32 -0.36 z M13.855 35.36 l0.04 0.16 c0.12 -0.08 0.2 -0.24 0.2 -0.4 c0 0 0 -0.12 -0.08 -0.12 c-0.12 0.12 -0.16 0.24 -0.16 0.36 z M13.815 33.44 l0.04 0.16 c-0.04 0.12 -0.12 0.24 -0.16 0.36 c0 0.04 0.04 0.08 0.04 0.16 c0 0.04 -0.04 0.08 -0.04 0.08 c-0.04 -0.04 -0.04 -0.12 -0.04 -0.2 c0 -0.12 0.04 -0.48 0.16 -0.56 z M16.655 24.439999999999998 c-0.12 0 -0.16 0.32 -0.16 0.4 c0 0.04 0.04 0.12 0.12 0.16 l0.16 -0.08 c-0.12 0 -0.12 -0.2 -0.12 -0.32 l0 -0.16 z M16.055 28.92 l-0.04 -0.16 c-0.12 0 -0.24 0.24 -0.24 0.32 c0.16 0 0.24 -0.04 0.28 -0.16 z M14.774999999999999 32.64 l-0.04 -0.04 c-0.12 0.08 -0.16 0.2 -0.16 0.32 c0.08 0 0.16 -0.2 0.2 -0.28 z M14.735 33.44 l-0.08 0 c-0.08 0 -0.24 0 -0.28 0.08 c0.04 0 0.2 0.08 0.24 0.08 c0.12 0 0.08 -0.08 0.12 -0.16 z M15.774999999999999 30.560000000000002 l0.08 -0.04 l-0.08 -0.24 l-0.16 0.2 c0 0.08 0.08 0.08 0.12 0.08 l0.04 0 z M14.415 34.92 l0.16 0.12 l0.08 -0.24 l-0.04 -0.04 z M14.895 34.72 l-0.16 0.12 l0 0.04 c0 0.04 0.04 0.08 0.12 0.08 l0.16 -0.16 z M14.774999999999999 34.480000000000004 l0.08 0.12 l0.08 -0.12 l-0.08 -0.16 z M16.975 23.52 l-0.2 0.4 l0.04 0 c0.08 0 0.16 -0.32 0.16 -0.4 z M16.174999999999997 28.32 l-0.08 -0.08 c-0.04 0 -0.08 0.08 -0.12 0.12 l0.16 0.04 z M16.535 25.2 l-0.04 0 c-0.08 0 -0.12 0.04 -0.12 0.16 l0.04 0 c0.08 0 0.08 -0.08 0.12 -0.16 z M15.934999999999999 25.32 l-0.04 -0.16 l0.08 -0.12 c0 0.04 -0.04 0.24 -0.04 0.28 z M13.855 38.52 l-0.08 0.08 l0.08 0.04 l0.08 0 z M15.135 29.92 l0.08 -0.08 l-0.08 -0.08 c-0.04 0.04 -0.04 0.08 -0.04 0.08 z M15.454999999999998 26.759999999999998 c0 0.04 0 0.16 -0.12 0.2 l-0.04 0 c0.04 -0.08 0.12 -0.16 0.16 -0.2 z M15.454999999999998 32.2 l-0.04 -0.16 l0 0.2 z M14.575 32.44 l-0.12 0.12 l0.04 0.04 c0.08 0 0.08 -0.04 0.08 -0.04 l0 -0.12 z M14.895 40.96 l-0.04 -0.08 c-0.04 0.04 -0.12 0.04 -0.12 0.12 l0.08 0.04 z M14.575 38 l-0.08 -0.08 l-0.08 0.12 c0.04 0 0.16 -0.04 0.16 -0.04 z M16.415 26.08 l0.04 -0.08 l0 -0.04 l-0.12 0.04 z M15.454999999999998 31.6 l0.08 0 l-0.08 -0.04 l0 0.04 z M15.135 32.32 c-0.04 0 -0.04 0 -0.04 0.08 l0 0 c0.04 0 0.04 -0.04 0.04 -0.08 z M16.095 28 c0.04 0 0.04 0.04 0.04 0.08 l0.08 -0.04 c-0.04 -0.04 -0.08 -0.04 -0.12 -0.04 z M15.495 30.32 c0.04 0.04 0.04 0.04 0.08 0.04 c0 -0.04 0 -0.04 0.04 -0.04 l-0.12 0 z M14.295 39.56 c-0.04 0.04 -0.04 0.04 -0.04 0.08 l0.04 0 l-0.04 0 c0 -0.04 0.04 -0.04 0.04 -0.08 z M13.254999999999999 37.04 c0 0.16 0 0.24 -0.08 0.36 c0.08 -0.12 0.08 -0.2 0.08 -0.36 z M15.614999999999998 30.96 l0 0.04 l0.04 -0.04 l-0.04 0 l0 0 z M14.215 39.32 c0 0.04 0 0.04 0.04 0.04 l0.04 -0.04 c-0.04 0 -0.04 0 -0.04 -0.04 c-0.04 0 -0.04 0 -0.04 0.04 z M16.415 27.119999999999997 l-0.04 0 c0.04 0 0.04 0 0.04 0.04 c0.04 0 0.04 0 0.04 -0.04 l-0.04 0 z M15.774999999999999 29.32 l0 -0.04 c-0.04 0.04 -0.04 0.04 -0.04 0.08 l0.04 -0.04 l0 0 z M14.454999999999998 33.84 l-0.04 0 l0 0.04 c0.04 0 0.04 0 0.04 -0.04 z M15.774999999999999 27.6 l0 0.08 l0 -0.08 z M13.575 36.76 l0 -0.04 l0.08 0 c0 0.04 0 0 -0.08 0.04 z M14.575 40.28 l-0.08 0.08 c0.08 0 0.08 -0.04 0.08 -0.04 l0 0 l-0.08 0 s0.08 0 0.08 -0.04 z M30.43 32.04 l0.16 0.28 c-1.04 1.32 -2.4 2.48 -3.76 3.44 c-0.4 0.28 -1.68 0.8 -1.76 1.2 l0.2 0.08 l-0.32 0.24 l0.04 0.04 c0.52 -0.12 0.8 -0.48 1.24 -0.68 l0.48 0.2 c-0.16 0.16 -0.4 0.36 -0.68 0.52 l0.16 0.12 c-0.36 0.2 -0.68 0.44 -1.04 0.68 c-0.24 0.16 -2.52 0.96 -2.76 0.96 c-2.28 0 -4.12 -1.12 -4.12 -2.8 c0 -1.2 0.08 -2.8 0.72 -3.88 c-0.12 0.12 0.56 -0.68 0.56 -1.24 c0 -1.2 2.8 -4.4 3.6 -5.28 c0.6 -0.68 1.4 -0.88 2.36 -0.88 c1.52 0 2.72 1.12 2.72 2.48 c0 2 -0.76 1.68 -1 2.48 c-0.48 1.48 -3.36 2.84 -4.96 2.84 c-0.24 0 -0.44 -0.04 -0.68 -0.04 c-0.56 0 -0.72 1.76 -1 1.96 l0 0.16 c0 0.44 -0.12 1.44 -0.12 1.8 c0 0.4 0 1.56 0.64 1.56 c3.92 0 5.52 -4.12 8.32 -5.44 c0.32 -0.16 0.96 -0.48 1 -0.8 z M21.83 31.6 l0 0.16 c0 0.08 0 0.32 0.16 0.32 c0.2 0 0.96 -0.4 1.16 -0.52 c0.44 0 3.12 -2.04 3.16 -2.36 c0.08 -0.48 0.36 -0.96 0.36 -1.44 c0 -0.32 -0.08 -1.76 -0.64 -1.76 c-1.2 0 -2.68 3.56 -3.4 4.08 c-0.16 0.48 -0.44 1.16 -0.8 1.52 z M27.349999999999998 27.439999999999998 c-0.12 0 -0.6 0.84 -0.6 0.96 s0.04 0.28 0.16 0.28 c0.24 -0.32 0.44 -0.76 0.52 -1.12 l0.04 -0.08 z M18.99 34.2 c0.04 -0.2 0.16 -0.44 0.28 -0.6 c0 -0.04 0 -0.2 -0.08 -0.2 s-0.2 0.52 -0.28 0.6 c0 0.08 0 0.16 0.08 0.2 z M25.31 37.68 l-0.04 0.04 c0.04 0 0.08 0.04 0.08 0.04 c0.16 0 0.44 -0.2 0.52 -0.24 l-0.04 -0.08 c-0.28 0 -0.32 0.24 -0.52 0.24 z M29.39 32.6 l0 -0.04 c0.16 -0.16 0.4 -0.28 0.56 -0.44 c-0.04 0.24 -0.36 0.44 -0.56 0.48 z M19.029999999999998 35.4 c0 -0.04 0.12 -0.16 0.12 -0.2 s0 -0.12 -0.04 -0.16 c-0.16 0 -0.2 0.16 -0.2 0.24 s0.08 0.12 0.12 0.12 z M19.43 32.92 l0.12 -0.16 l-0.04 -0.08 l-0.16 0.08 l0 0.2 z M18.909999999999997 34.56 c0 -0.04 -0.08 -0.16 -0.08 -0.2 l-0.04 0.16 c0 0.08 0 0.12 0.04 0.2 c0.04 -0.04 0.08 -0.08 0.08 -0.16 z M20.47 30.52 c0 -0.04 -0.04 -0.04 -0.04 -0.08 l-0.16 0.08 l0.04 0.12 z M20.349999999999998 30.32 c0.08 -0.04 0.08 -0.12 0.12 -0.16 l-0.04 -0.08 c-0.08 0.08 -0.12 0.12 -0.16 0.24 l0.08 0 z M19.589999999999996 34.92 l0.12 -0.12 l-0.12 -0.04 l0 0.16 z M30.229999999999997 32 l0 0.04 c-0.08 0.04 -0.2 0.04 -0.28 0.08 c0.16 -0.08 0.08 -0.12 0.28 -0.12 z M18.79 35.12 l0.04 0 c0 -0.04 -0.04 -0.12 -0.08 -0.16 l-0.04 0.16 l0.08 0 z M20.549999999999997 32.96 l0 -0.2 c-0.04 0.08 -0.08 0.12 -0.08 0.24 z M20.709999999999997 30.64 l-0.08 0 l0.04 0.08 c0.04 -0.04 0.08 -0.04 0.08 -0.08 l-0.04 0 z M19.31 33.2 l0.04 0 l-0.04 -0.04 l0.04 0 l-0.04 -0.04 l0 0.08 z M29.005 38.2 l0 -0.04 l-0.12 0.12 c-0.08 0.84 -0.08 0.92 -0.6 1.52 c-0.12 0.56 -0.48 0.6 -0.6 0.88 c0.08 -0.12 0.24 -0.2 0.36 -0.28 c-0.12 0.32 -0.36 0.64 -0.6 0.96 c-0.32 0.4 -0.44 1.24 -0.72 1.76 l0.4 -0.64 c0 -0.16 0.24 -0.32 0.28 -0.52 l0 0.04 c0 0.16 -0.16 0.4 -0.24 0.56 l-0.04 -0.04 c-0.2 0.32 -0.44 0.68 -0.6 1.04 l0 0.04 c-0.12 0.2 -0.16 0.48 -0.16 0.72 l0 0.08 l0.08 -0.04 l0 0.04 c0.08 -0.56 0.28 -1.36 0.68 -1.76 c-0.08 0.16 -0.12 0.32 -0.16 0.48 c0.12 -0.12 0.32 -0.64 0.44 -0.8 l0.04 0.08 c0 0.08 0.04 0.08 0.08 0.08 c0.24 0 0.4 -1.44 1.04 -1.72 l0 0.2 c0 0.08 -0.8 0.68 -0.8 1.64 c0 0.04 0.04 0.04 0.04 0.08 c-0.2 0.12 -0.28 0.56 -0.36 0.76 c0.12 -0.16 0.36 -0.6 0.36 -0.76 l0.12 -0.12 c-0.04 -0.08 -0.08 -0.16 -0.08 -0.24 c0 -0.28 0.28 -0.44 0.48 -0.64 c0 0 0.04 0.04 0.04 0.08 c0 0.08 -0.08 0.12 -0.08 0.24 c0.16 -0.24 0.44 -0.68 0.44 -0.96 l0.08 0.04 l-0.04 0.04 l0.04 0.08 l0 0.04 l0 0 c0.08 0 1.68 -2.28 1.96 -2.88 l0.08 0.04 l-0.08 0.16 c0.68 -0.68 1 -1.68 1.64 -2.44 c0.2 0.16 0.32 0.36 0.32 0.6 c0.68 0.96 0.48 1.08 1.72 1.4 l0.28 -0.28 l-0.08 -0.08 l0.12 -0.08 c0 -0.08 -0.2 -0.2 -0.28 -0.44 l0.04 -0.12 c-0.08 -0.12 -0.16 -0.32 -0.16 -0.48 l0.16 0.2 c0 -1.04 -0.6 -1.84 -0.6 -2.8 c0 -0.12 0.16 -0.36 0.28 -0.4 c-0.04 0 -0.04 0 -0.04 -0.04 s0.12 -0.16 0.16 -0.24 c0.56 -0.88 1.32 -1.64 1.92 -2.44 c0 -0.56 1.56 -1.48 1.72 -2.52 l0 -0.08 c0.4 -0.72 0.96 -1.36 1.44 -2 l0 0 c0.32 -0.36 0.48 -0.84 0.52 -1.28 l-0.08 -0.36 c0 -0.12 -0.12 -0.64 -0.28 -0.64 c-0.08 0.08 -0.2 0.2 -0.28 0.24 c-0.04 -0.04 -0.04 -0.04 -0.04 -0.08 c0 -0.08 0 -0.12 0.04 -0.16 l-0.08 -0.12 l-0.16 0.12 l-0.08 -0.08 c0 -0.04 0.04 -0.08 0.04 -0.12 c0 -0.16 -0.16 -0.16 -0.32 -0.2 l0 0.04 c-0.04 0.08 -0.16 0.12 -0.2 0.24 l0.2 0.04 c0 0.08 -0.2 0.24 -0.24 0.28 l-0.04 0 c0 0.08 0 0.28 -0.16 0.28 c-0.04 0 -0.12 -0.04 -0.12 -0.04 c-0.08 0.08 -0.16 0.2 -0.16 0.28 l0 0.12 l-0.08 0.16 c-0.64 0.72 -1.12 1.68 -1.44 2.24 c-0.96 1.4 -2.44 2.84 -3.04 4.12 c-0.04 -0.56 -0.44 -1.24 -0.44 -1.92 c0 -0.08 0.04 -0.12 0.04 -0.16 c-0.16 -0.16 0 -0.44 -0.16 -0.6 l0 -0.24 c0 -0.2 0 -0.4 -0.12 -0.56 c0 -0.44 -0.52 -2.52 -0.76 -2.76 l-0.2 0.04 l-0.2 -0.08 l0 -0.16 c-0.2 0.04 -0.36 0.2 -0.36 0.4 l-0.12 0.16 l-0.04 -0.2 l0.04 -0.44 l-0.08 -0.08 l-0.24 0 c-0.12 0 -0.64 0.04 -0.64 0.2 c0 0.08 0.04 0.2 0.08 0.32 c0 0.08 -0.04 0.16 -0.04 0.24 c0 0.04 0 0.12 0.04 0.12 l0.04 0 l-0.04 0 c0 1.52 0.6 2.84 0.6 4.36 c0.16 0.28 0.48 1.88 0.48 2.2 c0 0.08 0.36 0.72 0.36 1.4 l0 0.28 l0.04 0.16 c0 0.72 -1.36 1.6 -1.68 2.68 c-0.08 0.28 -0.4 0.76 -0.56 0.96 c-0.28 0.32 -0.24 0.56 -0.4 0.92 l0.08 -0.04 l0.04 0.04 l-0.12 0.12 l0 -0.12 l-0.24 0.32 l0.12 -0.68 z M26.244999999999997 43.64 l0.24 -0.04 l0.04 -0.12 l-0.08 -0.04 c0 -0.16 0.08 -0.28 0.2 -0.44 c0 -0.04 -0.08 -0.08 -0.12 -0.08 c-0.16 0.2 -0.28 0.48 -0.32 0.68 z M27.564999999999998 40.72 l-0.04 0.12 l-0.08 -0.12 l-0.04 0.04 l0 0.12 l-0.08 0.08 c0 0.08 0.04 0.08 0.08 0.08 l-0.04 0.16 l-0.08 -0.08 l-0.12 0.2 l0.12 0.12 c0.24 -0.12 0.28 -0.48 0.28 -0.72 z M26.604999999999997 42.88 c0.2 0 0.28 -0.52 0.28 -0.64 c-0.2 0.2 -0.28 0.24 -0.36 0.52 c0 0.04 0 0.12 0.08 0.12 z M27.244999999999997 41.68 c0 0 -0.08 -0.12 -0.12 -0.16 c-0.24 0 -0.12 0.32 -0.24 0.44 l0.08 0.16 l-0.04 0.04 l0.12 -0.04 c-0.04 -0.04 -0.04 -0.08 -0.04 -0.12 c0 -0.16 0.24 -0.16 0.24 -0.32 z M34.045 37.48 c0.08 0.08 0.28 0.12 0.4 0.2 l-0.08 0.12 c-0.16 0 -0.28 -0.12 -0.36 -0.24 z M34.324999999999996 37.36 c0.12 0 0.2 0.12 0.28 0.16 c-0.08 0.12 -0.04 0.16 -0.16 0.16 l0 0 c-0.08 -0.12 -0.12 -0.2 -0.12 -0.32 z M29.325 38.16 c0 -0.08 0.12 -0.4 0.24 -0.4 l0.08 0.04 c-0.12 0.12 -0.12 0.28 -0.32 0.4 l0 -0.04 z M28.284999999999997 39.44 c0.12 -0.04 0.04 -0.16 0.12 -0.24 l-0.04 -0.04 l-0.16 0.24 z M28.124999999999996 40.6 c-0.12 0.12 -0.12 0.16 -0.12 0.28 c-0.04 0 -0.08 -0.08 -0.08 -0.16 l0.12 -0.16 z M26.404999999999998 44.56 l-0.04 -0.04 l-0.16 0.16 l0.08 0.16 z M27.284999999999997 42.92 c0.12 -0.08 0.12 -0.2 0.16 -0.32 l-0.04 -0.04 c0 0.12 -0.12 0.24 -0.12 0.32 l0 0.04 z M27.884999999999998 40.24 c0.04 -0.04 0.08 -0.16 0.08 -0.24 l-0.04 0 l0 -0.08 l-0.04 -0.04 l0.04 0.04 l-0.08 0.16 l0.08 0.04 l-0.08 0.12 l0.04 0 z M28.284999999999997 40.28 l-0.04 -0.04 l0 -0.08 c0 -0.08 0 -0.08 0.04 -0.08 l0.04 0 c0 0.08 -0.04 0.16 -0.04 0.2 z M29.005 38.88 c0 0.08 -0.12 0.28 -0.2 0.28 l0 -0.12 l0.2 -0.2 l0 0.04 z M29.884999999999998 37.44 c0 0.08 -0.04 0.2 -0.2 0.2 c0 -0.12 0.04 -0.2 0.2 -0.2 z M28.124999999999996 39.72 l0 0.16 c0.04 -0.08 0.12 -0.2 0.16 -0.28 c-0.04 0.04 -0.12 0.08 -0.16 0.12 z M26.244999999999997 43.8 l-0.04 0 c-0.04 0 -0.08 0.08 -0.08 0.12 l0.04 0.08 l0.04 -0.04 c0 -0.04 -0.04 -0.04 -0.04 -0.04 c0 -0.04 0.04 -0.08 0.08 -0.12 z M27.764999999999997 40.24 c-0.04 0.08 -0.2 0.16 -0.2 0.24 l0 0.04 c0.12 -0.08 0.2 -0.16 0.2 -0.28 z M28.124999999999996 39.72 l0 -0.16 c-0.08 0.04 -0.12 0.12 -0.2 0.2 l0.04 0 z M26.244999999999997 44.88 l-0.08 0.32 l0 0 c0.04 -0.08 0.12 -0.16 0.12 -0.28 z M35.485 28.759999999999998 c0 -0.04 0.12 -0.12 0.2 -0.12 z M27.564999999999998 41.84 l-0.08 0 l-0.04 0 l0.04 0 c0 -0.04 0.04 -0.04 0.08 -0.08 l0 0.08 z M27.764999999999997 40.24 c0.08 0 0.08 -0.12 0.08 -0.16 c-0.08 0.04 -0.08 0.12 -0.08 0.16 z M26.685 42.64 c0 0 -0.04 -0.04 -0.04 -0.08 l0 -0.04 c0.04 0.04 0.04 0.08 0.04 0.12 z M28.685 39.4 c0.04 -0.04 0.08 -0.08 0.08 -0.12 l0 0.16 c-0.04 0 -0.04 0 -0.08 -0.04 z M27.124999999999996 43.16 l0 0.08 l0.12 -0.12 c-0.08 0 -0.12 0 -0.12 0.04 z M29.884999999999998 25.16 c0.04 0 0.04 0 0.04 -0.04 c-0.04 -0.04 -0.04 -0.04 -0.08 -0.04 c0 0.04 0 0.08 0.04 0.08 z M28.884999999999998 39.44 l-0.08 0 l0 -0.08 c0 0.04 0.04 0.04 0.08 0.08 z M26.485 43.6 l0 -0.04 l0.04 0 z M27.724999999999998 41.4 l-0.12 0.08 c0 -0.08 0 -0.08 0.08 -0.12 z M28.884999999999998 40.88 c-0.04 0 -0.08 0.04 -0.08 0.08 l0 -0.04 l0.04 -0.04 l0.04 0 z M31.084999999999997 35.44 l0 -0.04 c0.08 0 0.08 0.04 0.08 0.04 l-0.08 0 z M28.645 38.88 c0 -0.08 0 -0.08 -0.08 -0.08 c0 0 0.04 0.04 0.04 0.08 l0.04 0 z M27.284999999999997 42.92 c-0.04 0.04 -0.04 0.04 -0.04 0.08 c0.04 0 0.04 -0.08 0.04 -0.08 z M30.444999999999997 36.48 l-0.04 0 l0.08 -0.12 c0 0.04 0 0.08 -0.04 0.12 z M29.165 39.2 l0.04 0 c0 0.08 -0.04 0.04 -0.04 0.08 l0 -0.08 z M26.244999999999997 43.8 l0.12 0 l0 -0.04 z M30.444999999999997 25.36 c0 0 0 -0.04 0.04 -0.08 c0 0.08 0 0.08 -0.04 0.08 z M27.444999999999997 43.44 l0 0.08 l0.04 -0.04 c0 -0.04 0 -0.04 -0.04 -0.04 z M27.244999999999997 42.36 c0 0.08 -0.08 0.12 -0.12 0.16 l0 -0.04 c0.04 0 0.12 -0.08 0.12 -0.12 z M26.845 42.36 l0 0.04 l-0.04 0 c0 -0.04 0 -0.04 0.04 -0.04 z M29.525 37.36 l0 -0.12 l-0.04 0.08 z M38.964999999999996 23.6 l0.04 0 l0 0 l-0.04 0 z M27.404999999999998 42.48 l0.04 0 c0 -0.04 0 -0.04 -0.04 -0.04 l0 0.04 z M27.444999999999997 40.72 c0.04 0 0.04 0 0.04 -0.04 z M29.485 38.6 l-0.04 -0.04 c0 -0.04 0 -0.04 0.04 -0.04 l0 0.08 z M27.005 41.88 c0 -0.04 0.04 -0.04 0.04 -0.08 l0 0.04 z M34.805 29.880000000000003 l0 -0.04 l0 0 l0 0.04 z M27.044999999999998 43.48 l0 -0.08 l0 0.04 l0 0.04 z M30.084999999999997 37 l-0.04 0.04 l0 -0.04 l0.04 0 z M30.604999999999997 36.96 l-0.04 0.08 c0 -0.04 0 -0.04 0.04 -0.08 z M28.645 40.4 l0.04 0 l0 0.04 z M26.205 44 c-0.04 0.04 -0.04 0.08 -0.04 0.08 z M27.604999999999997 40.72 l0.08 -0.04 z M26.205 44 l0 -0.04 l0 0.04 z M26.365 43.8 l0 -0.04 l0 0.04 l0 0 z M30.404999999999998 36.36 l0 0.04 l0 -0.04 z M30.365 37.16 l-0.04 0.04 c0 -0.04 0 -0.04 0.04 -0.04 z M49.635000000000005 31.08 l0.08 -0.12 c0.2 -0.2 0.56 -1.12 0.92 -1.12 c0.48 -1.2 2.96 -2.12 4.32 -2.12 l0.08 0.04 c-0.2 0 -0.72 0.16 -0.88 0.24 l0.04 0.08 c0.28 0 0.56 -0.2 0.84 -0.2 c1 0 1.44 1.16 1.44 1.92 c0.08 0.12 0.08 0.28 0.08 0.44 c0 0.4 -0.16 0.72 -0.16 1.08 l0.04 0.08 c0 1.32 -1.48 2.96 -1.52 3.72 c-0.68 0.64 -0.92 1.44 -1.48 1.92 c-1.72 1.6 -1.76 2.36 -4.4 2.36 c-0.52 0 -0.88 -0.12 -1.24 -0.44 c-0.16 0 -0.36 0.32 -0.36 0.48 c-0.08 0.48 -0.16 0.8 -0.44 1.28 c-0.08 0.12 -0.2 0.28 -0.28 0.4 c-0.04 0.08 -0.16 0.2 -0.16 0.16 c-0.52 0.76 -0.88 1.84 -2 1.84 c-0.4 0 -1.48 -0.68 -1.48 -0.84 c0.36 -0.04 0.4 -0.56 0.4 -0.96 l0 -0.44 c0 -0.44 0.24 -1.76 0.24 -2.32 c0 -0.08 -0.04 -0.2 -0.04 -0.24 c0.36 -0.32 0.08 -1.48 0.4 -1.68 c0 -0.04 -0.04 -0.08 -0.04 -0.08 c0 -0.96 1.32 -4.64 1.32 -5.4 l0 -0.08 c0.68 -1.04 0.48 -2.28 0.84 -3.36 c0.04 -0.12 0.08 -0.2 0.08 -0.32 l-0.04 -0.08 l0.08 -0.08 c-0.04 -0.12 -0.04 -0.16 -0.04 -0.2 c0 -0.08 0.04 -0.08 0.08 -0.28 l-0.12 -0.04 c0 0.8 -0.28 1.28 -0.44 2 c-0.28 1 -0.72 1.84 -0.84 2.88 c-0.08 0.64 -0.28 1.2 -0.52 1.76 c-0.08 0.48 -0.2 1.04 -0.36 1.52 l0.04 0.08 c-0.16 0.16 -0.2 0.28 -0.2 0.4 l0 0.24 c0 0.24 -0.16 0.4 -0.16 0.64 c0 0.28 -0.12 0.52 -0.12 0.8 l0.04 0.04 l-0.2 0.28 l0.12 0.16 c0 0.16 -0.04 0.48 -0.32 0.6 l0.08 0 l0.04 0.12 c0 0.12 -0.04 0.24 -0.12 0.4 l0.16 0.16 c-0.04 0.12 -0.2 0.16 -0.2 0.32 c0 0.04 0.04 0.2 0.08 0.24 l-0.08 0.16 c0.04 0.04 0.04 0.08 0.04 0.16 c0 0.12 -0.04 0.24 -0.04 0.36 l0 0.2 c-0.08 0.56 -0.04 1.12 -0.16 1.68 c-0.04 -0.32 -0.12 -0.64 -0.12 -0.96 c0 -0.88 0.12 -1.76 0.12 -2.64 c0 -0.28 0.32 -1.88 0.52 -2.04 c0.28 -0.64 0.36 -2.92 0.72 -3.28 c0.16 -0.76 0.68 -2.04 0.68 -2.56 c0 -0.4 0.08 -0.8 0.2 -1.16 l0.28 -0.56 l0 0 l0.04 -0.08 l-0.08 -0.16 c0 -0.64 0.68 -3.52 1.04 -4.08 c0 -0.48 0.28 -2.08 0.52 -2.48 c0 -0.36 0.12 -0.72 0.2 -1.08 l0.16 -0.48 l0.04 -0.04 l0.04 -0.16 l-0.04 -0.08 c0 -0.8 0.6 -1.6 1.48 -1.76 c0.12 -0.04 0.2 -0.16 0.32 -0.16 l0.2 0.04 c0.16 0 0.36 0 0.52 -0.04 c0.04 0.08 0.04 0.12 0.04 0.16 c0 0.08 -0.2 0.6 -0.2 0.8 c0.04 0.12 0.12 0.36 0.12 0.52 c0 0.24 -0.16 0.4 -0.16 0.72 c0 1.2 -0.52 1.32 -0.56 1.56 c-0.12 0.56 -0.36 1.16 -0.36 1.72 l0.08 0.08 c-0.16 0.12 -0.2 0.12 -0.2 0.32 l0.12 0.04 c-0.12 0.32 -0.24 0.68 -0.36 1.04 c0 0.04 0.08 0.16 0.08 0.2 c0 0.32 -0.2 0.68 -0.36 0.96 c0 0.08 0.04 0.2 0.04 0.32 c0 0.04 -0.36 1.64 -0.4 1.76 c0 0.08 0.04 0.16 0.04 0.2 c0 0.2 -0.2 0.24 -0.24 0.48 c0.04 0.08 0.04 0.16 0.04 0.2 c0 0.16 -0.52 0.88 -0.52 1.08 c0.04 0.04 0.04 0.16 0.04 0.2 c0 0.12 -0.04 0.28 -0.04 0.4 s0.04 0.24 0.04 0.36 c-0.2 0.24 0 0.76 -0.36 0.8 c-0.24 0.04 -0.32 0.16 -0.32 0.36 c0.04 0.04 0.08 0.12 0.08 0.16 c0 0.2 -0.12 0.36 -0.12 0.6 c0 0.28 -0.2 0.64 -0.4 0.88 c0 0.08 0.04 0.12 0.04 0.2 c0 0.2 -0.12 0.4 -0.12 0.6 c0 0.04 0 0.08 0.04 0.12 l-0.12 0.28 l0 0.16 c0 0.32 -0.04 0.68 -0.2 1 l0.04 0.16 c-0.12 0.12 -0.12 0.32 -0.12 0.48 l0 0.2 c0 0.72 -0.36 1.24 -0.36 1.52 c0 0.08 0.12 0.16 0.12 0.28 c-0.08 0.04 -0.08 0.12 -0.08 0.2 l0 0.16 l0.08 0.04 c0.36 -1.04 1.12 -2.08 1.36 -3.12 c0.04 -0.36 0.28 -0.8 0.56 -1.08 c0.08 -0.36 0.16 -0.64 0.36 -0.96 l0.08 0.08 l0.04 -0.08 c-0.04 -0.08 -0.04 -0.16 -0.04 -0.28 c0 -0.04 0.04 -0.04 0.08 -0.04 l0.08 0 c0.16 0 0.24 -0.32 0.28 -0.44 c-0.04 -0.04 -0.08 -0.12 -0.08 -0.2 c0 -0.44 1.12 -1.96 1.52 -2.36 z M46.675000000000004 37.6 l0.16 0.08 l0.16 -0.32 c0 -0.12 -0.12 -0.12 -0.12 -0.2 c0 -0.2 0.32 -0.08 0.32 -0.28 l0 0 l-0.08 -0.16 c0 -0.12 0.32 -0.08 0.32 -0.36 c0 -0.48 0.32 -1.04 0.68 -1.4 c0.04 0.08 0.16 0.48 0.16 0.52 c0 0.28 -0.36 0.12 -0.44 0.32 c0 0.08 0.04 0.16 0.04 0.24 c0 0.32 -0.08 1.16 -0.32 1.4 l0 -0.04 c-0.12 0.04 -0.16 0.12 -0.2 0.16 l0.08 0.2 l-0.2 0.24 l0.04 0.08 l0.16 -0.08 l0.16 0.04 c0.04 -0.16 0.12 -0.28 0.2 -0.4 l0.12 0.04 c0 0.08 -0.04 0.12 -0.04 0.16 s0 0.16 0.04 0.16 l0.08 0 l0.16 -0.16 c0.04 0.08 0.04 0.16 0.04 0.16 c0 0.08 -0.04 0.16 -0.04 0.2 c0 0.24 0.36 0.44 0.52 0.44 c0.52 0 1.28 -0.8 1.6 -1.12 l0.24 -0.12 l0.08 0.04 l-0.08 0.08 l0.08 0 c0.08 -0.08 0.16 -0.16 0.24 -0.16 l0.12 0 l0.12 -0.04 c0 0.56 -1.44 1.36 -1.52 1.56 l0.04 0.04 c0.48 0 0.76 -0.72 1.12 -0.8 c0.56 -0.12 0.68 -0.6 0.92 -1.04 c0.28 -0.52 0.6 -0.88 0.92 -1.36 c0.36 -0.48 0.6 -0.96 0.84 -1.48 l0.24 -0.56 c0.08 -0.04 0.16 -0.24 0.16 -0.24 l0 0.04 c0 -0.4 0.28 -0.76 0.28 -1.12 c0.16 -0.28 0.2 -0.6 0.2 -0.88 c0 -0.08 -0.12 -0.08 -0.12 -0.2 c0 -0.24 0.12 -0.48 0.12 -0.72 c0 -0.32 -0.12 -2.04 -0.56 -2.04 s-1.92 1.76 -2.32 2.08 l-0.04 -0.16 l0.24 -0.32 l-0.2 -0.04 c0 -0.16 0.36 -0.6 0.44 -0.8 l0 -0.08 c0 -0.08 0.08 -0.16 0.08 -0.24 c-0.12 0.04 -0.44 0.24 -0.44 0.4 l0.04 0 l0.12 0.12 c-0.12 0.2 -1.04 1.16 -1.04 1.56 c0 0.04 0 0.08 0.04 0.12 c0 0.28 -0.28 0.52 -0.48 0.68 l-0.2 -0.12 c-0.04 0.04 -0.08 0.12 -0.16 0.2 l-0.08 -0.12 c0.08 -0.12 0.44 -0.64 0.6 -0.64 l0 0.12 c0.08 0 0.12 -0.08 0.12 -0.16 c-0.04 -0.04 -0.08 -0.12 -0.08 -0.16 c0 -0.16 0.52 -0.8 0.68 -0.92 c-0.08 0 -0.2 -0.04 -0.24 -0.04 s-0.84 0.92 -0.84 1.08 l0.04 0.04 c0 0.32 -0.8 1.04 -0.96 1.32 c-0.36 0.48 -0.72 0.96 -0.92 1.48 c-0.28 0.44 -0.32 1.28 -0.68 1.6 c0 0.08 0 0.2 0.08 0.28 c0 0.08 -0.08 0.08 -0.08 0.08 l-0.04 0 l-0.04 -0.08 c-0.12 0.44 -0.92 1.88 -0.92 2.12 c0.04 -0.12 0.12 -0.24 0.24 -0.32 z M48.915000000000006 34.64 l-0.04 -0.12 c0.52 -0.68 0.96 -1.36 1.32 -2.12 c0.08 -0.16 0.08 -0.32 0.24 -0.32 l0.04 0.08 c-0.2 0.4 -1.08 1.92 -1.08 2.36 l-0.04 0 c-0.16 0 -0.32 0.04 -0.44 0.12 z M51.395 38.16 c-0.12 0.04 -0.24 0.12 -0.32 0.2 l0.04 0 l0.04 0 l-0.04 0.04 c0.72 -0.24 1.6 -2 2.08 -2.64 c-0.12 0.16 -1 1.4 -1.16 1.6 c-0.44 0.16 -0.52 0.4 -0.64 0.8 z M46.915000000000006 24.4 l-0.04 0 c-0.6 0.48 -0.32 1.4 -0.64 2 l0.12 0.08 c0.16 0 0.2 -0.84 0.2 -1 c0.2 -0.2 0.2 -0.4 0.2 -0.64 c0 -0.12 0.04 -0.28 0.16 -0.44 z M49.075 33.04 l-0.04 0 c0 -0.24 0.2 -0.6 0.36 -0.76 l0 -0.04 c0 -0.16 0.24 -0.16 0.36 -0.16 c0 0.2 -0.24 0.32 -0.24 0.4 l0.08 0.12 c-0.04 0.16 0.04 0.44 -0.2 0.44 l-0.04 0 l0.08 -0.28 c-0.04 0.12 -0.24 0.24 -0.36 0.28 z M48.355000000000004 36.08 c0 -0.36 0.32 -0.8 0.6 -1.12 l0.04 0.04 c0 0.2 -0.36 1.24 -0.64 1.24 l0.08 0 c-0.08 0 -0.08 -0.08 -0.08 -0.16 z M48.875 33.6 c0 0.24 -0.12 0.88 -0.44 0.88 c-0.08 0 -0.12 -0.04 -0.12 -0.08 c0 -0.2 0.32 -0.8 0.56 -0.8 z M54.235 34.16 l-0.04 -0.08 c-0.24 0 -0.36 0.24 -0.36 0.4 l0.04 0.08 l-0.24 0.52 c0.24 -0.32 0.4 -0.52 0.6 -0.92 z M47.995000000000005 37.44 l-0.08 -0.08 c0.12 -0.16 0.16 -0.68 0.4 -0.68 l0.04 0.16 c-0.16 0.2 -0.12 0.48 -0.36 0.6 z M53.795 32.4 l0.04 0 c0.08 -0.32 0.16 -0.56 0.32 -0.8 l0 0.16 c0 0.16 -0.16 0.68 -0.32 0.68 z M48.555 35.04 l-0.2 0.08 l-0.04 -0.04 c0.2 -0.16 0 -0.44 0.36 -0.6 c-0.04 0.04 -0.16 0.36 -0.16 0.48 c0 0.04 0.04 0.08 0.04 0.08 z M45.875 31.48 c0 -0.04 0.04 -0.16 0.04 -0.2 l-0.08 -0.08 c-0.04 0.08 -0.16 0.28 -0.16 0.36 c0 0.04 0 0.2 0.12 0.2 c0.08 -0.04 0.08 -0.16 0.08 -0.28 z M51.315000000000005 29.64 l-0.04 -0.16 l-0.24 0.24 c0 0.12 0.04 0.12 0.12 0.12 z M51.155 30.96 c0 0.16 -0.08 0.32 -0.2 0.4 l-0.08 -0.04 c0.04 -0.16 0.08 -0.28 0.28 -0.36 z M54.835 30.52 c0.04 -0.04 0.04 -0.08 0.04 -0.12 s-0.12 -0.48 -0.16 -0.56 l0 0.16 c0 0.2 0 0.44 0.12 0.52 z M54.515 32.68 c0 0.04 -0.04 0.04 -0.04 0.12 c0.04 -0.04 0.2 -0.32 0.28 -0.44 l-0.08 -0.08 c-0.16 0 -0.16 0.28 -0.16 0.4 z M46.915000000000006 24.04 l0.2 -0.4 l-0.04 -0.08 l-0.16 0.36 l0 0.12 z M47.315000000000005 38.56 l0.12 -0.16 l-0.2 -0.08 l-0.08 0.08 l0.04 0.04 c0 0.04 0.08 0.12 0.12 0.12 z M51.035000000000004 30.52 l0.08 0.12 c-0.04 0.04 -0.16 0.08 -0.24 0.08 c0 -0.08 0.04 -0.2 0.16 -0.2 z M51.835 29.8 l-0.12 0.08 c0 0.04 0 0.12 0.04 0.12 c0.08 -0.04 0.16 -0.12 0.16 -0.16 z M55.355000000000004 30.119999999999997 l-0.04 -0.04 c0 0.08 0 0.28 0.08 0.28 c0 -0.08 -0.04 -0.2 -0.04 -0.24 z M44.635000000000005 36.52 l0.04 -0.12 l0.04 -0.16 l-0.04 0 c0 0.08 -0.08 0.16 -0.08 0.24 z M50.675000000000004 31.72 l0.04 0.04 l-0.12 0.12 l-0.08 -0.08 c0.08 -0.04 0.12 -0.04 0.16 -0.08 z M54.355000000000004 33.72 l-0.04 0 c-0.04 0 -0.08 0.04 -0.12 0.08 l0.12 0.04 s0 -0.08 0.04 -0.12 z M54.435 33.28 l-0.04 -0.08 l-0.12 0.16 c0.04 0 0.12 -0.04 0.16 -0.08 z M53.515 33.2 l-0.04 0 c0 -0.04 0.04 -0.12 0.12 -0.12 l0 0.04 c0 0.08 0 0.08 -0.08 0.08 z M46.795 27.36 l-0.04 0.04 l0 0.12 c0.08 -0.04 0.12 -0.04 0.12 -0.12 c0 0 -0.04 0 -0.08 -0.04 z M54.915000000000006 31.439999999999998 l0 -0.04 c0 -0.04 0 -0.12 -0.04 -0.12 l-0.04 0.12 z M45.035000000000004 40 l-0.08 -0.08 c0 0.08 0 0.12 -0.04 0.16 c0.04 0 0.08 -0.04 0.12 -0.08 z M45.115 34.36 l-0.04 0.08 l0.08 -0.12 l-0.08 -0.08 c0 0.04 0.04 0.08 0.04 0.12 z M45.795 32.04 l-0.08 -0.08 l-0.04 0.12 l0 0.04 c0.04 -0.04 0.12 -0.04 0.12 -0.08 z M50.835 38.64 l0 -0.04 c-0.04 0 -0.08 0.04 -0.08 0.08 l0.04 0 z M47.595 38.92 l-0.04 -0.08 l-0.12 0.04 l0.12 0.08 z M47.195 23.28 l0.04 -0.08 l0 -0.12 c-0.04 0.04 -0.04 0.04 -0.04 0.08 l0 0.12 z M54.635000000000005 33.96 l-0.04 0.04 l0 0.04 l0.08 -0.04 z M50.675000000000004 30.92 l0.04 -0.04 l0.04 0.04 l-0.04 0.08 z M47.435 38.32 l0 0.08 l0.08 -0.08 l0 -0.04 z M44.115 39.36 l0.04 -0.04 l-0.04 -0.04 l0 0 l0 0.08 z M44.035000000000004 40.2 l0.08 0.04 s0 -0.08 -0.04 -0.08 z M53.355000000000004 36.24 l-0.08 0.04 l0.04 0.04 l0.08 -0.08 l-0.04 0 z M44.075 40.36 l0.04 0.04 l0 -0.12 l0 -0.04 c-0.04 0.04 -0.04 0.08 -0.04 0.12 z M49.715 30.96 l-0.12 0 l0.04 -0.04 c0 0.04 0.08 0.04 0.08 0.04 z M44.475 37.68 l0 -0.08 c-0.04 0.04 -0.04 0.04 -0.12 0.04 c0 0.04 0.08 0.04 0.12 0.04 z M54.315000000000005 34.56 l0.08 -0.08 l-0.08 0.04 l0 0.04 z M54.155 31.439999999999998 l0 0.16 l0 -0.12 l0 -0.04 z M49.115 31.96 l0 -0.04 l-0.04 0 s0.04 0 0.04 0.04 z M50.755 31.2 l0.04 0 c0 0.04 0 0.04 -0.04 0.04 l0 -0.04 z M45.115 36.24 l-0.04 0 l0.04 0 l0 0 z M43.315000000000005 40.32 c0 -0.04 0 -0.04 0.04 -0.04 l-0.04 0 l0 0.04 z M44.515 36.84 l0 -0.04 l-0.04 0.04 l0 0.04 c0 -0.04 0 -0.04 0.04 -0.04 z M51.395 30.08 c-0.04 0 -0.04 0 -0.04 0.04 z M46.075 30.36 l0 -0.04 c0 0.04 0 0.04 -0.04 0.04 l0.04 0 z M50.795 31.16 l-0.04 0.04 l0 -0.04 l0.04 0 z M51.155 30.96 l0 0 l0 0 z M62.89 32.76 l-0.04 -0.04 c0.28 -0.16 0.56 -0.48 0.68 -0.8 l-0.04 -0.04 c0.04 -0.36 0.52 -0.8 0.8 -1.04 l-0.04 -0.08 l0.04 -0.08 l0.08 0.08 l0.2 -0.28 l-0.08 -0.08 l0.12 -0.12 c0 -0.56 1.28 -1.88 1.76 -2.2 l0 0 c0.16 -0.04 0.32 -0.12 0.48 -0.12 l0.04 0.04 c0.16 0 0.24 -0.2 0.44 -0.2 l0 0.04 c0.08 -0.08 0.24 -0.16 0.44 -0.16 l0 0.08 l0.16 -0.08 l0.2 0.04 l0.12 -0.04 c0.04 0.24 0.2 0.2 0.2 0.44 c0 0.2 -0.12 0.48 -0.16 0.68 l0 0.04 c-0.36 0.8 -0.84 1.92 -0.96 2.76 c-0.08 0.8 -0.16 1.72 -0.44 2.44 c0 0.04 0 0.12 -0.08 0.12 c-0.12 0 -0.12 0.44 -0.12 0.52 c0 0.52 -0.16 0.96 -0.16 1.48 c0 0.24 0.08 1.52 0.52 1.52 l0.28 -0.2 c0.12 0 0.04 0.2 0.2 0.2 c0 0.12 -0.12 0.04 -0.16 0.2 c0.04 0.04 0.12 0.08 0.12 0.16 l-0.08 0.2 l0 0.08 c-0.08 0 -0.16 0.12 -0.16 0.16 l0.04 0.04 c0 0.12 -0.16 0.12 -0.24 0.16 l-0.04 -0.08 l-0.2 0.12 l-0.12 0 c-0.12 0 -0.24 0.08 -0.36 0.08 c-0.16 -0.08 -0.24 -0.16 -0.36 -0.16 l-0.04 0.04 c-0.24 -0.04 -0.64 -0.36 -0.8 -0.48 c-0.48 -0.24 -0.52 -0.68 -0.52 -1.16 c0 -0.24 -0.2 -0.48 -0.2 -0.72 c0 -0.4 0.2 -0.88 0.2 -1.36 l-0.04 -0.04 l0.04 -0.12 c0 -0.6 0.16 -0.96 0.16 -1.48 c0 -0.04 -0.08 -0.16 -0.08 -0.2 c-0.04 0.4 -0.8 0.88 -0.92 1.24 c-0.32 0.44 -0.64 0.84 -0.92 1.24 c-1.12 0.8 -0.88 0.92 -1.68 1.64 c-0.28 0.28 -0.64 0.48 -0.96 0.72 l0 -0.04 c-0.68 0 -1.2 0.36 -1.88 0.36 c-0.04 0 -0.24 -0.12 -0.32 -0.12 l-0.16 0.04 c-0.56 -0.64 -0.84 -1.28 -0.84 -2.08 c0 -1 0.32 -2 0.68 -2.96 c0.32 -0.88 0.76 -1.72 1.28 -2.52 c0.16 -0.28 0.36 -0.56 0.52 -0.8 l0.2 -0.32 s0.16 -0.04 0.16 -0.08 l0.52 -1.08 c0 -0.04 0.32 -0.32 0.32 -0.36 c0 -0.16 2.04 -1.64 2.36 -1.84 c0.4 0 0.8 -0.16 1.12 -0.32 c0 0 0.44 -0.2 0.52 -0.2 c0.04 0 0 0 0 0.04 c0.12 -0.04 0.48 -0.12 0.8 -0.12 c0.08 0 0.16 0 0.2 0.04 l-0.04 -0.08 c0.72 0 1.44 0.68 1.88 1.16 c0.04 0.08 0.08 0.12 0.2 0.12 l-0.04 0.04 l0.08 0.12 l0 0.04 l-0.2 -0.04 l-0.08 0.08 c0 0.2 0.28 0.24 0.28 0.36 l-0.2 -0.12 l-0.24 0.08 c0 0.16 0.24 0.2 0.44 0.24 c-0.88 -0.2 -0.96 -0.12 -1.72 -0.6 c-0.28 -0.16 -0.56 -0.6 -0.88 -0.6 c-0.04 0 -0.76 0.2 -0.84 0.24 c0.12 -0.12 0.28 -0.16 0.44 -0.24 c-0.2 0 -1.2 0.48 -1.2 0.68 l0.2 0 c-0.04 0.2 -0.48 0.72 -0.72 0.76 l0.08 0.08 l-0.08 0.04 l0.12 0.12 c-0.28 0.2 -0.68 0.64 -0.68 0.96 c-0.2 0.16 -0.92 1.44 -0.96 1.68 c-0.36 0.2 -0.76 1.08 -0.88 1.48 l0 -0.04 c-0.64 0.72 -1.68 3.52 -1.76 4.56 c0.08 0.08 -0.04 0.16 0.12 0.16 c0.32 -0.36 1 -1 1.52 -1.12 l0.16 0 l0.08 -0.16 l-0.04 0 c0.04 -0.12 0.32 -0.36 0.36 -0.48 l0 0.04 c0 -0.32 0.24 -0.68 0.6 -0.8 l-0.04 0 c0.04 -0.2 0.52 -0.24 0.52 -0.6 l-0.04 -0.04 l0.2 -0.12 l-0.04 0 c0.04 -0.28 0.28 -0.56 0.56 -0.72 z M62.85 27.759999999999998 c0.16 -0.2 0.52 -0.92 0.88 -0.96 c-0.2 0.36 -0.68 0.64 -0.88 1 l0 -0.04 z M63.81 27.04 l-0.04 -0.04 c0.04 -0.04 0.12 -0.16 0.16 -0.2 l0.08 0.08 c0 0.08 -0.12 0.12 -0.2 0.16 z M64.33 26.64 c-0.08 0.04 -0.16 0.12 -0.28 0.16 l0 0 c0.08 -0.08 0.2 -0.16 0.28 -0.16 z M59.17 30.560000000000002 c0.04 -0.04 0.08 -0.08 0.08 -0.12 c-0.08 0 -0.08 0.08 -0.08 0.12 z M67.81 27.560000000000002 l-0.08 0 c-0.16 0 -0.28 -0.04 -0.32 -0.08 c0.12 0 0.28 0.08 0.4 0.08 z M60.89 35.44 l0.08 0 l0 -0.04 z M64.29 31.2 l0.08 0 l0.04 -0.04 c-0.04 0 -0.08 0 -0.12 0.04 z M60.89 35.44 l-0.04 0.08 l0 0.04 c0.04 -0.04 0.04 -0.08 0.04 -0.12 z M64.89 34.64 l0 0.08 l0.04 -0.04 z M64.37 30.6 l-0.04 0 l0.04 -0.04 c0.04 0 0.04 0 0.04 -0.04 c0 0.04 0 0.04 -0.04 0.08 z M64.29 30.64 c0 -0.04 0 -0.04 0.04 -0.04 c0 0.04 0 0.04 -0.04 0.04 z M67.77000000000001 27.6 l0 0 l0 0 l0 0 z M60.53 35.72 l0.12 -0.04 c-0.04 0.04 -0.04 0.04 -0.12 0.04 z M67.25 27.439999999999998 l0 0.04 l0 -0.04 z M78.625 25.68 c0.36 -0.68 0.6 -0.48 0.92 -0.92 c0 -0.32 0.4 -0.36 0.44 -0.52 c-0.04 0 -0.08 0.04 -0.08 0.08 c0 -0.76 0.92 -1.28 0.92 -2 c0 -0.2 -0.12 -0.36 -0.12 -0.56 l0 -0.2 c0.24 0 0.6 0.24 0.84 0.36 l0.04 -0.04 c0.12 0.28 0.48 0.2 0.68 0.4 l0.12 -0.04 l0.28 0.64 c0 2.8 -3.08 5.32 -4.92 6.56 l0.04 -0.04 c-0.44 0.12 -1.4 0.96 -1.72 1.28 c-0.68 0.76 -3.08 2.4 -3.08 2.6 l0.96 0.48 l-0.12 0.08 c0.12 0 0.32 0.08 0.44 0.16 l0.12 -0.08 c0.88 0.32 2 0.56 2.76 1.12 c0.44 0.32 1.04 0.72 1.44 0.72 c0.56 0.32 2.64 1.56 2.64 2.28 c0 0.08 -0.24 0.12 -0.28 0.12 c-0.12 0 -0.2 -0.08 -0.24 -0.16 l-0.32 0.2 c-0.08 -0.12 -0.28 -0.28 -0.44 -0.28 l-0.12 0.08 c-0.6 -0.2 -1.8 -1.04 -2.28 -1.04 c-0.76 -0.6 -5.36 -1.68 -5.84 -2.32 l-0.08 -0.08 c-0.2 0 -1 2.64 -1.24 3.56 c-0.12 0.44 -0.2 1 -0.48 1.4 l-0.08 -0.04 c0 0.56 -0.48 1.2 -0.56 1.2 l-0.04 0.04 l0 -0.28 l-0.04 -0.12 c-0.16 0.12 -0.16 0.32 -0.16 0.44 c0 0 -0.04 -0.04 -0.08 -0.04 c-0.16 0 -0.32 1.04 -0.36 1.2 c0 0.04 0.04 0.08 0.04 0.12 s-0.04 0.12 -0.08 0.12 c-0.04 -0.08 -0.08 -0.28 -0.2 -0.32 l0 0.16 c-0.12 0 -0.16 -0.12 -0.16 -0.2 c0 -0.12 0.04 -0.24 0.04 -0.32 c0 -0.12 -0.04 -0.28 -0.04 -0.44 c0.16 -0.16 0.16 -0.32 0.16 -0.48 l0 -0.24 c0.36 -1 0.12 -2.12 0.64 -3.08 c0.32 -1.92 0.92 -3.88 1.44 -5.8 l0.16 0.08 l0.08 -0.08 c-0.08 -0.04 -0.08 -0.16 -0.08 -0.24 c0 -0.24 0.28 -0.72 0.28 -0.8 l-0.04 -0.12 c0.16 -0.28 0.28 -0.32 0.28 -0.64 l-0.08 0.2 c-0.04 -0.04 -0.04 -0.12 -0.04 -0.16 c0 -0.16 0.2 -0.32 0.2 -0.52 l-0.04 -0.08 l0.16 -0.04 l-0.08 -0.2 c0.04 -0.08 0.4 -1.56 0.6 -2.2 l0.08 -0.04 c0 -0.04 -0.04 -0.08 -0.04 -0.12 c0 -1.24 0.88 -2.36 0.96 -3.44 c0.16 -0.08 0.24 -0.88 0.36 -1.04 c-0.12 0.08 -0.68 0.92 -0.76 0.92 c-0.16 -0.08 -0.28 -0.32 -0.28 -0.48 c0 -1 1.16 -2.04 1.16 -2.48 c0.16 -0.16 0.12 -0.6 0.48 -0.6 l0.16 0.12 l0.16 -0.04 c0.2 0 0.52 0.12 0.64 0.32 l0.12 -0.16 c0.32 0.64 0.48 0.72 0.48 1.52 c0 0.52 -0.16 1.04 -0.32 1.52 l-0.24 0.68 c0 0.8 -0.84 2.44 -0.68 2.36 c0 0.08 0.04 0.16 0.04 0.24 c0 0.8 -1.12 3.68 -1.32 4.84 l0.04 0.04 c0.44 0 0.48 -0.56 0.92 -0.56 l0 0.04 l0 0 c0 -0.12 3.56 -3.24 4.84 -4.6 z M74.865 29.36 l0.08 0.04 c0.2 0 0.32 -0.2 0.32 -0.36 l0 -0.04 c-0.16 0.08 -0.24 0.2 -0.4 0.36 z M74.30499999999999 29.92 l-0.04 0 c-0.12 0 -0.16 0.08 -0.16 0.2 l0.04 0 z M78.985 25.560000000000002 l0.08 -0.16 l0 0 l0 -0.04 l-0.16 0.16 z M76.38499999999999 28.240000000000002 l0.08 -0.16 c-0.04 0 -0.12 0.08 -0.2 0.16 l0.12 0 z M75.545 28.84 l0.08 0.04 l0.04 -0.08 c0 -0.04 -0.04 -0.08 -0.08 -0.08 s-0.04 0.08 -0.04 0.12 z M80.145 24.08 c0.12 0 0.16 -0.04 0.16 -0.12 l-0.04 0 c-0.12 0 -0.12 0.04 -0.12 0.12 z M79.985 24.68 l-0.04 -0.12 l-0.04 0 l0 0.08 s0.08 0 0.08 0.04 z M79.66499999999999 24.68 l-0.08 0.12 l0.2 -0.08 c0 -0.04 -0.08 -0.04 -0.12 -0.04 z M78.705 25.72 l-0.08 -0.04 l0.08 0.16 l0 -0.12 z M78.585 26 l-0.04 0 l-0.08 0.08 c0.04 0 0.08 -0.08 0.12 -0.08 z M80.38499999999999 23.68 l0 0.04 l0.08 -0.04 l-0.04 -0.08 s-0.04 0.04 -0.04 0.08 z M69.225 38.8 l0 -0.08 l0 -0.08 l0 0.16 z M73.465 33.72 c0 -0.04 0 -0.04 0.08 -0.04 c-0.04 0 -0.08 0 -0.08 -0.04 l-0.04 0.04 s0.04 0 0.04 0.04 z M72.745 31 l0 0.04 l0.04 0 l0 -0.04 l0 -0.04 c-0.04 0 -0.04 0 -0.04 0.04 z M76.02499999999999 28.48 c-0.08 0 -0.08 0 -0.08 0.04 l0.04 0.04 c0 -0.04 0 -0.04 0.04 -0.08 z M79.585 24.8 c0 0 -0.04 0.04 -0.04 0.08 l0.04 -0.04 l0 -0.04 z M70.265 32.32 l0 0.08 l0 -0.16 l0 0.08 z M93.52 32.04 l0.16 0.28 c-1.04 1.32 -2.4 2.48 -3.76 3.44 c-0.4 0.28 -1.68 0.8 -1.76 1.2 l0.2 0.08 l-0.32 0.24 l0.04 0.04 c0.52 -0.12 0.8 -0.48 1.24 -0.68 l0.48 0.2 c-0.16 0.16 -0.4 0.36 -0.68 0.52 l0.16 0.12 c-0.36 0.2 -0.68 0.44 -1.04 0.68 c-0.24 0.16 -2.52 0.96 -2.76 0.96 c-2.28 0 -4.12 -1.12 -4.12 -2.8 c0 -1.2 0.08 -2.8 0.72 -3.88 c-0.12 0.12 0.56 -0.68 0.56 -1.24 c0 -1.2 2.8 -4.4 3.6 -5.28 c0.6 -0.68 1.4 -0.88 2.36 -0.88 c1.52 0 2.72 1.12 2.72 2.48 c0 2 -0.76 1.68 -1 2.48 c-0.48 1.48 -3.36 2.84 -4.96 2.84 c-0.24 0 -0.44 -0.04 -0.68 -0.04 c-0.56 0 -0.72 1.76 -1 1.96 l0 0.16 c0 0.44 -0.12 1.44 -0.12 1.8 c0 0.4 0 1.56 0.64 1.56 c3.92 0 5.52 -4.12 8.32 -5.44 c0.32 -0.16 0.96 -0.48 1 -0.8 z M84.91999999999999 31.6 l0 0.16 c0 0.08 0 0.32 0.16 0.32 c0.2 0 0.96 -0.4 1.16 -0.52 c0.44 0 3.12 -2.04 3.16 -2.36 c0.08 -0.48 0.36 -0.96 0.36 -1.44 c0 -0.32 -0.08 -1.76 -0.64 -1.76 c-1.2 0 -2.68 3.56 -3.4 4.08 c-0.16 0.48 -0.44 1.16 -0.8 1.52 z M90.44 27.439999999999998 c-0.12 0 -0.6 0.84 -0.6 0.96 s0.04 0.28 0.16 0.28 c0.24 -0.32 0.44 -0.76 0.52 -1.12 l0.04 -0.08 z M82.08 34.2 c0.04 -0.2 0.16 -0.44 0.28 -0.6 c0 -0.04 0 -0.2 -0.08 -0.2 s-0.2 0.52 -0.28 0.6 c0 0.08 0 0.16 0.08 0.2 z M88.39999999999999 37.68 l-0.04 0.04 c0.04 0 0.08 0.04 0.08 0.04 c0.16 0 0.44 -0.2 0.52 -0.24 l-0.04 -0.08 c-0.28 0 -0.32 0.24 -0.52 0.24 z M92.47999999999999 32.6 l0 -0.04 c0.16 -0.16 0.4 -0.28 0.56 -0.44 c-0.04 0.24 -0.36 0.44 -0.56 0.48 z M82.11999999999999 35.4 c0 -0.04 0.12 -0.16 0.12 -0.2 s0 -0.12 -0.04 -0.16 c-0.16 0 -0.2 0.16 -0.2 0.24 s0.08 0.12 0.12 0.12 z M82.52 32.92 l0.12 -0.16 l-0.04 -0.08 l-0.16 0.08 l0 0.2 z M82 34.56 c0 -0.04 -0.08 -0.16 -0.08 -0.2 l-0.04 0.16 c0 0.08 0 0.12 0.04 0.2 c0.04 -0.04 0.08 -0.08 0.08 -0.16 z M83.55999999999999 30.52 c0 -0.04 -0.04 -0.04 -0.04 -0.08 l-0.16 0.08 l0.04 0.12 z M83.44 30.32 c0.08 -0.04 0.08 -0.12 0.12 -0.16 l-0.04 -0.08 c-0.08 0.08 -0.12 0.12 -0.16 0.24 l0.08 0 z M82.67999999999999 34.92 l0.12 -0.12 l-0.12 -0.04 l0 0.16 z M93.32 32 l0 0.04 c-0.08 0.04 -0.2 0.04 -0.28 0.08 c0.16 -0.08 0.08 -0.12 0.28 -0.12 z M81.88 35.12 l0.04 0 c0 -0.04 -0.04 -0.12 -0.08 -0.16 l-0.04 0.16 l0.08 0 z M83.64 32.96 l0 -0.2 c-0.04 0.08 -0.08 0.12 -0.08 0.24 z M83.8 30.64 l-0.08 0 l0.04 0.08 c0.04 -0.04 0.08 -0.04 0.08 -0.08 l-0.04 0 z M82.39999999999999 33.2 l0.04 0 l-0.04 -0.04 l0.04 0 l-0.04 -0.04 l0 0.08 z M95.77499999999999 25.240000000000002 c0.08 -0.04 0.16 -0.16 0.16 -0.24 l-0.08 -0.08 c0.08 -0.04 0.2 -0.2 0.28 -0.2 l0.08 0.04 l0.08 -0.08 l0 -0.04 c0 0.12 0.24 0.16 0.4 0.16 l0.36 0.24 l0.08 -0.08 l0.04 0.08 l0 0.16 c0.04 0 0.12 0 0.12 0.12 l0 0.04 c-0.08 0.2 -0.08 0.36 -0.08 0.48 l0 0.32 c0 0.36 -0.24 0.72 -0.24 1.12 l0.04 0.12 c-0.64 0.84 -0.36 1.8 -0.72 2.72 c-0.04 0.08 -0.08 0.2 -0.08 0.28 c0 0.04 0 0.08 0.04 0.16 c-0.48 0.88 -0.48 1.84 -0.64 2.28 l0.04 0.08 c0.36 -0.76 0.56 -1 0.68 -1.48 l-0.04 -0.12 l0.04 0.04 c0.16 0 1.08 -2.08 1.76 -2.72 c0.4 -0.36 0.8 -0.76 1.08 -1.2 l0 0 c0.6 -0.28 1.12 -0.28 1.72 -0.48 l0 0.04 s0.08 -0.04 0.16 -0.04 c0.4 0 0.68 0.2 0.68 0.48 c0 0.56 -0.32 0.64 -0.72 0.84 l-0.08 -0.08 l-0.24 0.2 l-0.12 -0.04 l-0.08 0.2 l-0.04 0.04 l0.04 0 l-0.16 -0.08 l0 0.2 c-0.12 0 0 -0.32 -0.16 -0.32 c0 0.24 -0.44 0.48 -0.6 0.56 l0.04 0 c0 0.84 -1.16 1.56 -1.16 1.72 l0.04 0 c-0.08 0.12 -0.4 0.6 -0.4 0.76 l0 0.04 l-0.08 0.04 c-0.16 0.64 -0.6 1.04 -0.84 1.64 l0.08 0.04 c-0.44 0.28 -0.16 1.28 -0.76 1.76 l0 -0.04 c-0.12 0.28 -0.2 0.56 -0.36 0.84 l0.04 0.12 c-0.56 0.52 -0.44 1.4 -0.68 1.6 l-0.48 1.12 l0.04 -0.04 c-0.12 0.4 -0.32 0.72 -0.52 1.08 l-0.04 -0.04 c0 0.2 -0.36 0.32 -0.56 0.36 l-0.08 -0.04 c-0.2 0 -0.72 -0.24 -0.8 -0.36 l-0.12 0.04 c-0.16 -0.16 -0.32 -0.28 -0.52 -0.4 c0 -0.16 0.52 -0.72 0.56 -1.68 l-0.04 0 c-0.08 0 -0.08 -0.04 -0.08 -0.08 c0.08 0 0.12 0 0.12 0.04 c0.08 -0.08 0.08 -0.44 0.12 -0.56 l-0.04 -0.2 c0.2 -0.12 0.08 -0.6 0.16 -0.8 c0 0 -0.04 -0.08 -0.04 -0.12 c0 -0.96 0.64 -1.76 0.64 -3.08 c0.04 -0.12 0.08 -0.28 0.16 -0.36 l-0.04 -0.16 l0.08 -0.12 l0 -0.08 l0 -0.4 c0 -0.12 0 -0.28 -0.04 -0.4 c0.04 -0.08 0.4 -1.36 0.44 -1.48 c0.44 -1.6 0.96 -2.92 1.36 -4.48 z M93.855 34.36 c0 0.2 -0.12 0.36 -0.12 0.48 c0 0.04 0.08 0.12 0.12 0.12 c0 -0.32 0.12 -0.72 0.2 -1.08 l-0.04 -0.04 c-0.16 0 -0.08 0.4 -0.16 0.52 z M93.655 35.92 c0 -0.32 0.04 -0.6 0.16 -0.88 c-0.12 0 -0.16 0.08 -0.16 0.12 s0 0.12 0.04 0.12 c-0.12 0.28 -0.16 0.6 -0.16 0.88 c0 -0.08 0.04 -0.16 0.12 -0.24 z M96.615 31.32 l0.04 0.12 c0.04 -0.08 0.12 -0.2 0.12 -0.32 l-0.12 -0.04 l0.04 0.04 c-0.04 0.08 -0.04 0.16 -0.08 0.2 z M94.575 30.92 c-0.08 0 -0.12 0.2 -0.12 0.32 l0.08 0.04 c0 -0.12 0 -0.28 0.04 -0.36 z M92.815 37.6 l0.04 0.08 c0 0.12 -0.04 0.24 -0.08 0.32 l0 0 l-0.04 -0.04 c0.04 -0.12 0.08 -0.24 0.08 -0.36 z M92.77499999999999 38.2 l-0.04 0.12 l0 -0.08 c0 -0.04 0 -0.16 0.04 -0.16 l0 0.12 z M93.495 36.84 l-0.08 0.36 c0.04 -0.12 0.08 -0.24 0.08 -0.36 z M93.41499999999999 37.48 l0 -0.08 l-0.12 0.12 l0.04 0 l0.08 0 l-0.08 0 z M94.095 33.28 l0.04 -0.16 c-0.08 0.04 -0.08 0.04 -0.08 0.08 z M94.255 32.480000000000004 l0.04 0.04 c0.04 -0.08 0.04 -0.12 0.04 -0.16 z M92.975 37.24 l-0.04 0.08 l-0.12 0 z M94.13499999999999 32.72 l0.04 0.08 l0 -0.08 l-0.04 0 z M94.375 31.759999999999998 l0.04 0 l0.08 0 l-0.08 -0.12 c0 0.04 0 0.12 -0.04 0.12 z M94.575 30.8 l0 0.04 l0.08 0 c0 -0.04 -0.04 -0.04 -0.08 -0.04 z M93.295 38.04 l0 -0.04 l-0.04 0 z M94.175 32.92 l0 0.08 l0 -0.08 z M94.375 31.92 l0 -0.08 l0 0.08 z M92.77499999999999 38.44 l-0.04 -0.04 c0.04 0 0.04 0 0.04 0.04 z M96.535 31.240000000000002 c-0.04 0.04 -0.04 0.08 -0.04 0.12 c0 -0.04 0.04 -0.08 0.04 -0.12 z M101.655 27.2 c0 0.04 0 0.04 -0.04 0.08 c0 -0.04 0 -0.04 0.04 -0.08 z M101.455 28.08 l-0.04 0 l0.04 0 z"></path></g><g id="SvgjsG2292" featureKey="sloganFeature-0" transform="matrix(0.796584351587675,0,0,0.796584351587675,96.96808898627596,226.1285995650874)" fill="#f8b500"><path d="M7.92 16.12 c0 1.2267 -0.3199 2.21 -0.9599 2.95 s-1.5933 1.11 -2.86 1.11 c-0.74666 0 -1.3767 -0.10666 -1.89 -0.32 s-0.93 -0.52 -1.25 -0.92 s-0.55 -0.88 -0.69 -1.44 s-0.20334 -1.1867 -0.19 -1.88 l0.02 -0.52 l1.54 0 c0 0.42666 0.01334 0.86332 0.04 1.31 s0.11332 0.85332 0.25998 1.22 s0.37332 0.66666 0.67998 0.9 s0.74666 0.35 1.32 0.35 c0.88 0 1.5267 -0.23334 1.94 -0.7 s0.62 -1.12 0.62 -1.96 c0 -0.66666 -0.16 -1.1933 -0.48 -1.58 s-0.72 -0.71332 -1.2 -0.97998 s-0.99666 -0.50666 -1.55 -0.72 s-1.07 -0.48 -1.55 -0.8 s-0.88 -0.73 -1.2 -1.23 s-0.48 -1.1633 -0.48 -1.99 c0 -1.3333 0.34334 -2.3434 1.03 -3.03 s1.6967 -1.03 3.03 -1.03 c0.62666 0 1.17 0.1 1.63 0.3 s0.84334 0.48 1.15 0.84 s0.53332 0.78666 0.67998 1.28 s0.22 1.04 0.22 1.64 l0 1.26 l-1.46 0 c0 -0.44 -0.0033398 -0.89666 -0.01 -1.37 s-0.07666 -0.90668 -0.21 -1.3 s-0.35668 -0.71668 -0.67002 -0.97002 s-0.77 -0.38 -1.37 -0.38 c-0.86666 0 -1.52 0.22 -1.96 0.66 s-0.64666 1.0867 -0.62 1.94 l0 0.2 c0.01334 0.41334 0.08334 0.75668 0.21 1.03 s0.3 0.50668 0.52 0.70002 s0.47666 0.36334 0.77 0.51 s0.61334 0.3 0.96 0.46 c0.50666 0.22666 1 0.46666 1.48 0.72 s0.90334 0.55 1.27 0.89 s0.66332 0.74 0.88998 1.2 s0.34 1.01 0.34 1.65 z M16.98 16.12 c0 1.4133 -0.31666 2.4434 -0.95 3.09 s-1.6633 0.97 -3.09 0.97 c-1.3067 0 -2.2634 -0.36 -2.87 -1.08 s-0.91 -1.7133 -0.91 -2.98 l0 -7.2 c0 -1.3733 0.32334 -2.3934 0.97 -3.06 s1.6633 -1 3.05 -1 c1.32 0 2.2834 0.35 2.89 1.05 s0.91 1.69 0.91 2.97 l0 7.24 z M15.58 16.08 l-0.000019531 -7.22 c0 -0.76 -0.2 -1.3933 -0.6 -1.9 s-1.0067 -0.76 -1.82 -0.76 c-0.97334 0 -1.65 0.25334 -2.03 0.76 s-0.57 1.22 -0.57 2.14 l0 6.9 c0 0.38666 0.04334 0.75 0.13 1.09 s0.22666 0.63666 0.42 0.89 s0.44 0.45334 0.74 0.6 s0.66334 0.22 1.09 0.22 c0.93334 0 1.6067 -0.22666 2.02 -0.68 s0.62 -1.1333 0.62 -2.04 z M25.62 6.5 l-5.78 0 l0 5.5 l5.68 0 l0 1.44 l-5.68 0 l0 6.56 l-1.5 0 l0 -15 l7.28 0 l0 1.5 z M34.36 6.460000000000001 l-3.1 0 l0 13.54 l-1.48 0 l0 -13.54 l-3.1 0 l0 -1.46 l7.68 0 l0 1.46 z M49.66 5 l-3.44 15 l-1.28 0 l-2.5 -12.24 l-2.48 12.24 l-1.26 0 l-3.44 -15 l1.44 0 l2.52 12 l2.76 -11.96 l-0.02 -0.04 l0.02 0 l0.96 0 l0.11 0.49 c0.07334 0.32666 0.17 0.75332 0.29 1.28 s0.25666 1.1333 0.41 1.82 s0.31334 1.39 0.48 2.11 s0.33 1.4333 0.49 2.14 s0.30666 1.35 0.44 1.93 s0.24668 1.07 0.34002 1.47 s0.15334 0.65334 0.18 0.76 l2.52 -12 l1.46 0 z M58.04 20 l-1.4 0 l-1.06 -4.3 l-4.36 0 l-1.06 4.3 l-1.36 0 l4.06 -15 l1.14 0 z M55.239999999999995 14.36 l-1.78 -7.42 l-1.9 7.42 l3.68 0 z M67.82 20 l-1.72 -0.000019531 l-3.14 -6.06 l-2.6 0 l0 6.06 l-1.34 0 l0 -15 l3.44 0 c1.3733 0 2.46 0.39334 3.26 1.18 s1.2 1.8667 1.2 3.24 c0 0.42666 -0.05666 0.86 -0.17 1.3 s-0.27668 0.85334 -0.49002 1.24 s-0.47668 0.73666 -0.79002 1.05 s-0.67 0.55668 -1.07 0.73002 z M65.5 9.32 c0 -0.46666 -0.08 -0.88664 -0.24 -1.26 s-0.38 -0.69 -0.66 -0.95 s-0.61334 -0.46 -1 -0.6 s-0.80666 -0.21 -1.26 -0.21 l-1.98 0 l0 6.26 l2.1 0 c1.0667 0 1.84 -0.28666 2.32 -0.86 s0.72 -1.3667 0.72 -2.38 z M76.39999999999999 20 l-7.5 0 l0 -15 l7.36 0 l0 1.52 l-5.98 0 l0 5.16 l5.94 0 l0 1.3 l-5.94 0 l0 5.5 l6.12 0 l0 1.52 z M88.56 20 l-7.5 0 l0 -15 l7.36 0 l0 1.52 l-5.98 0 l0 5.16 l5.94 0 l0 1.3 l-5.94 0 l0 5.5 l6.12 0 l0 1.52 z M97.96000000000001 20 l-1.56 0 l-5.2 -11.8 l0 11.8 l-1.44 0 l0 -15 l1.44 0 l5.22 11.3 l0.12 -11.3 l1.42 0 l0 15 z M107.30000000000001 16.12 c0 1.4 -0.31666 2.4266 -0.95 3.08 s-1.6567 0.98 -3.07 0.98 c-1.3067 0 -2.2634 -0.36 -2.87 -1.08 s-0.91 -1.7133 -0.91 -2.98 l0 -7.2 c0 -1.36 0.32 -2.3766 0.96 -3.05 s1.6467 -1.01 3.02 -1.01 c1.32 0 2.2866 0.35 2.9 1.05 s0.92 1.69 0.92 2.97 l0 1.24 l-1.42 0 c0 -0.48 -0.0033398 -0.96334 -0.01 -1.45 s-0.08 -0.92 -0.22 -1.3 s-0.38 -0.69 -0.72 -0.93 s-0.83666 -0.36 -1.49 -0.36 c-0.96 0 -1.6233 0.25 -1.99 0.75 s-0.55 1.1967 -0.55 2.09 l0 7.28 c0 0.86666 0.17666 1.53 0.53 1.99 s0.98334 0.69 1.89 0.69 s1.5667 -0.21666 1.98 -0.65 s0.62 -1.09 0.62 -1.97 l0 -2.66 l-2.98 -0.02 l0 -1.36 l4.36 0.02 l0 3.88 z M110.62000000000002 20 l-1.5 0 l0 -15 l1.5 0 l0 15 z M120.54000000000002 20 l-1.56 0 l-5.2 -11.8 l0 11.8 l-1.44 0 l0 -15 l1.44 0 l5.22 11.3 l0.12 -11.3 l1.42 0 l0 15 z M129.70000000000002 20 l-7.5 0 l0 -15 l7.36 0 l0 1.52 l-5.98 0 l0 5.16 l5.94 0 l0 1.3 l-5.94 0 l0 5.5 l6.12 0 l0 1.52 z M138.60000000000002 20 l-7.5 0 l0 -15 l7.36 0 l0 1.52 l-5.98 0 l0 5.16 l5.94 0 l0 1.3 l-5.94 0 l0 5.5 l6.12 0 l0 1.52 z M148.50000000000003 20 l-1.72 -0.000019531 l-3.14 -6.06 l-2.6 0 l0 6.06 l-1.34 0 l0 -15 l3.44 0 c1.3733 0 2.46 0.39334 3.26 1.18 s1.2 1.8667 1.2 3.24 c0 0.42666 -0.05666 0.86 -0.17 1.3 s-0.27668 0.85334 -0.49002 1.24 s-0.47668 0.73666 -0.79002 1.05 s-0.67 0.55668 -1.07 0.73002 z M146.18 9.32 c0 -0.46666 -0.08 -0.88664 -0.24 -1.26 s-0.38 -0.69 -0.66 -0.95 s-0.61334 -0.46 -1 -0.6 s-0.80666 -0.21 -1.26 -0.21 l-1.98 0 l0 6.26 l2.1 0 c1.0667 0 1.84 -0.28666 2.32 -0.86 s0.72 -1.3667 0.72 -2.38 z"></path></g>
			</g>
		</svg>
	